<?xml version="1.0" encoding="UTF-8" standalone="no"?>
<!-- Generator: Adobe Illustrator 26.0.1, SVG Export Plug-In . SVG Version: 6.00 Build 0)  -->

<svg
   version="1.1"
   x="0px"
   y="0px"
   viewBox="0 0 224.92809 51.416702"
   xml:space="preserve"
   id="svg85"
   sodipodi:docname="fox-eyes-close.svg"
   width="224.92809"
   height="51.416702"
   inkscape:version="1.3 (0e150ed6c4, 2023-07-21)"
   xmlns:inkscape="http://www.inkscape.org/namespaces/inkscape"
   xmlns:sodipodi="http://sodipodi.sourceforge.net/DTD/sodipodi-0.dtd"
   xmlns="http://www.w3.org/2000/svg"
   xmlns:svg="http://www.w3.org/2000/svg"><defs
   id="defs85" /><sodipodi:namedview
   id="namedview85"
   pagecolor="#505050"
   bordercolor="#ffffff"
   borderopacity="1"
   inkscape:showpageshadow="0"
   inkscape:pageopacity="0"
   inkscape:pagecheckerboard="1"
   inkscape:deskcolor="#505050"
   inkscape:zoom="1.4033333"
   inkscape:cx="162.47031"
   inkscape:cy="-25.653207"
   inkscape:window-width="1920"
   inkscape:window-height="1051"
   inkscape:window-x="-9"
   inkscape:window-y="-9"
   inkscape:window-maximized="1"
   inkscape:current-layer="g84" />&#10;<style
   type="text/css"
   id="style1">&#10;	.st0{fill:#37342F;stroke:#000000;stroke-width:1.4642;stroke-miterlimit:10;}&#10;	.st1{fill:#F4EFDF;stroke:#000000;stroke-width:1.4642;stroke-miterlimit:10;}&#10;	.st2{fill:#A09989;}&#10;	.st3{fill:#756F65;}&#10;	.st4{fill:#F4EFDF;}&#10;	.st5{fill:#3A0F0F;}&#10;	.st6{fill:#3F0E0E;}&#10;	.st7{fill:none;stroke:#000000;stroke-width:0.4881;stroke-linecap:round;stroke-linejoin:round;stroke-miterlimit:10;}&#10;	.st8{stroke:#000000;stroke-width:1.4642;stroke-miterlimit:10;}&#10;	.st9{fill:#262728;}&#10;	.st10{opacity:0.75;fill:#FFFFFF;}&#10;	.st11{fill:#AA9D7B;stroke:#000000;stroke-width:0.244;stroke-miterlimit:10;}&#10;	.st12{opacity:0.28;}&#10;	.st13{fill:#37342F;}&#10;	.st14{fill:#FFFFFF;stroke:#000000;stroke-width:1.4642;stroke-miterlimit:10;}&#10;	.st15{opacity:0.32;}&#10;	.st16{fill:#09568A;stroke:#000000;stroke-width:1.4642;stroke-miterlimit:10;}&#10;	.st17{fill:#000002;}&#10;	.st18{fill:#FAFFFF;}&#10;	.st19{fill:#030000;}&#10;	.st20{fill:#495D4A;stroke:#000000;stroke-width:1.9522;stroke-miterlimit:10;}&#10;	.st21{fill:#564D36;stroke:#000000;stroke-width:1.9522;stroke-miterlimit:10;}&#10;	.st22{fill:none;stroke:#000000;stroke-width:1.9522;stroke-miterlimit:10;}&#10;	.st23{fill:#817B66;stroke:#000000;stroke-width:1.9522;stroke-miterlimit:10;}&#10;	.st24{fill:#514E3F;stroke:#000000;stroke-width:1.4642;stroke-miterlimit:10;}&#10;	.st25{fill:#262314;stroke:#000000;stroke-width:1.4642;stroke-miterlimit:10;}&#10;	.st26{fill:#173A50;stroke:#000000;stroke-width:1.9522;stroke-miterlimit:10;}&#10;	.st27{opacity:0.86;fill:#7CA3B0;}&#10;</style>&#10;<g
   id="Layer_1"
   transform="translate(-199.6,-177.13676)">&#10;</g>&#10;<g
   id="Layer_19"
   transform="translate(-199.6,-177.13676)">&#10;</g>&#10;<g
   id="Layer_20"
   transform="translate(-199.6,-177.13676)">&#10;</g>&#10;<g
   id="Tail"
   transform="translate(-199.6,-177.13676)">&#10;</g>&#10;<g
   id="right_leg"
   transform="translate(-199.6,-177.13676)">&#10;</g>&#10;<g
   id="Left_leg"
   transform="translate(-199.6,-177.13676)">&#10;</g>&#10;<g
   id="body"
   transform="translate(-199.6,-177.13676)">&#10;</g>&#10;<g
   id="belt"
   transform="translate(-199.6,-177.13676)">&#10;</g>&#10;<g
   id="Face"
   transform="translate(-199.6,-177.13676)">&#10;</g>&#10;<g
   id="Left_ear"
   transform="translate(-199.6,-177.13676)">&#10;</g>&#10;<g
   id="Right_ear"
   transform="translate(-199.6,-177.13676)">&#10;</g>&#10;<g
   id="White_mouth"
   transform="translate(-199.6,-177.13676)">&#10;</g>&#10;<g
   id="Closed_mouth"
   transform="translate(-199.6,-177.13676)">&#10;	<g
   id="Mouth_copy">&#10;	</g>&#10;</g>&#10;<g
   id="Mouth"
   transform="translate(-199.6,-177.13676)">&#10;</g>&#10;<g
   id="wide_opened_mouth"
   transform="translate(-199.6,-177.13676)">&#10;	<g
   id="Mouth_copy_2">&#10;	</g>&#10;</g>&#10;<g
   id="Nose"
   transform="translate(-199.6,-177.13676)">&#10;</g>&#10;<g
   id="Nose_hair_2"
   transform="translate(-199.6,-177.13676)">&#10;</g>&#10;<g
   id="Nose_hair_1"
   transform="translate(-199.6,-177.13676)">&#10;</g>&#10;<g
   id="Eye_brow"
   transform="translate(-199.6,-177.13676)">&#10;</g>&#10;<g
   id="white_part_of_eyes"
   transform="translate(-199.6,-177.13676)">&#10;	<g
   id="Eyes_opened_copy">&#10;	</g>&#10;</g>&#10;<g
   id="eyes_2"
   transform="translate(-199.6,-177.13676)">&#10;	<g
   id="Layer_29">&#10;	</g>&#10;</g>&#10;<g
   id="eyes_1"
   transform="translate(-199.6,-177.13676)">&#10;	<g
   id="Layer_30">&#10;	</g>&#10;</g>&#10;<g
   id="Opened_eye_cover"
   transform="translate(-199.6,-177.13676)">&#10;</g>&#10;<g
   id="Eyes_closed"
   transform="translate(-199.6,-177.13676)">&#10;	<g
   id="Eyes_copy">&#10;	</g>&#10;</g>&#10;<g
   id="cap"
   transform="translate(-199.6,-177.13676)">&#10;</g>&#10;<g
   id="Glasses"
   transform="translate(-199.6,-177.13676)">&#10;	<g
   id="g85">&#10;		<g
   id="g84">&#10;			&#10;			&#10;			&#10;			&#10;			&#10;			&#10;			&#10;			&#10;			&#10;			&#10;			&#10;			&#10;			&#10;			&#10;			&#10;			&#10;			&#10;			&#10;			&#10;			&#10;			&#10;			&#10;			&#10;			&#10;			&#10;			&#10;			&#10;			&#10;			&#10;			&#10;		<g
   id="Eyes_closed_00000094613395569386377330000000372584751252232630_"
   transform="matrix(0.48827106,0,0,0.48827106,47.445542,-149.34268)">&#10;		<g
   id="Eyes_copy_00000005232876265983138750000012599159417583179950_">&#10;			<g
   id="g415">&#10;				<path
   class="st44"
   d="m 353.1,692.1 c 0,0 18.1,-3.3 50,0 32.7,3.4 50.4,-14.2 63.1,3.1 12.9,17.6 16.1,25.4 38.6,33.2 22.5,7.8 6.1,27.3 -10.1,27.3 -16.1,0 -39.1,24 -67.8,16.8 -28.6,-7.2 -119.7,-57.2 -73.8,-80.4 z"
   id="path414"
   style="fill:#37342f" />&#10;				<path
   class="st44"
   d="m 723.8,692.1 c 0,0 -18.2,-3.5 -50,0 -30.7,3.4 -42.3,-14.5 -62.5,5.9 -15.4,15.5 -16.7,22.7 -39.2,30.5 -22.5,7.8 -6.1,27.3 10.1,27.3 16.2,0 39.1,24 67.8,16.8 28.5,-7.3 119.7,-57.3 73.8,-80.5 z"
   id="path415"
   style="fill:#37342f" />&#10;			</g>&#10;			<path
   class="st36"
   d="m 717,685.2 c 0,0 -24.8,0.5 -42,3.6 -17.2,3.1 -32.9,-3.6 -32.9,-3.6 0,0 -5.1,-4.1 22.5,-1.9 27.6,2.2 48,-21.1 84.8,-12.9 36.8,8.2 23.5,23.8 0,19.2 C 726.2,685 717,685.2 717,685.2 Z"
   id="path416"
   style="fill:#f4efdf" />&#10;			<path
   class="st36"
   d="m 366.9,685.2 c 0,0 24.8,0.5 42,3.6 17.2,3.1 32.9,-3.6 32.9,-3.6 0,0 5.1,-4.1 -22.5,-1.9 -27.7,2.2 -48,-21.1 -84.8,-12.9 -36.8,8.2 -23.5,23.8 0,19.2 23.3,-4.6 32.4,-4.4 32.4,-4.4 z"
   id="path417"
   style="fill:#f4efdf" />&#10;		</g>&#10;		<g
   id="g423">&#10;			<g
   id="g419">&#10;				<path
   class="st1"
   d="m 701.5,694.9 c 0,0 4.1,26.8 -13.8,39.6 -13.8,9.9 -28.3,16.1 -55.9,15.9 -27.6,-0.2 -39.1,-11.6 -36.4,-29.7 0.1,0 49.3,-19.8 106.1,-25.8 z"
   id="path418"
   style="fill:#37342f;stroke:#000000;stroke-width:3;stroke-miterlimit:10" />&#10;				<path
   class="st47"
   d="m 697.5,723.2 c 0,0 -0.2,-13 -3.5,-15 -3.3,-1.9 -37.5,12.4 -45.2,17.1 -7.7,4.7 -24.8,15.9 -32.1,23.3 0,0 -15,-4.3 -17.9,-11.2 -2.9,-6.9 -6.7,-15.2 -3.2,-16.8 3.4,-1.6 30.8,-10.8 58.6,-16.9 27.9,-6.1 47.4,-8.9 47.4,-8.9 0,0 5.4,17.3 -4.1,28.4 z"
   id="path419"
   style="opacity:0.32;enable-background:new" />&#10;			</g>&#10;			<g
   id="g421">&#10;				<path
   class="st1"
   d="m 374.2,697.3 c 0,0 -2.2,21.9 14.8,36.1 11.9,9.9 32.5,19 61.7,18 23.5,-0.8 32,-14.5 30.2,-26.8 0.1,0 -46.8,-21.3 -106.7,-27.3 z"
   id="path420"
   style="fill:#37342f;stroke:#000000;stroke-width:3;stroke-miterlimit:10" />&#10;				<path
   class="st47"
   d="m 383.8,726.8 c 0,0 -1.6,-12.6 3.1,-15.3 4.6,-2.7 48.9,10.8 64.9,20.7 16,9.9 19.4,13.6 19.4,13.6 0,0 11,-11.4 10.6,-18 -0.4,-6.6 -6.5,-8 -32,-15.2 -23.6,-6.6 -71.7,-14.9 -74.9,-15.7 -3.2,-0.7 2.9,23.8 8.9,29.9 z"
   id="path421"
   style="opacity:0.32;enable-background:new" />&#10;			</g>&#10;			<path
   class="st51"
   d="m 327.7,691.2 c 0,0 30.4,-3.5 69.4,5.4 39.1,8.9 50,12.6 50,12.6 0,0 -24.3,-8.3 -29.9,-12.8 0,0 16.1,3.5 22.7,6.6 6.6,3.1 18.9,8.3 25.3,10.3 6.4,1.9 29.3,11.2 37.4,23.1 0,0 -3.4,-3.9 -11.2,-7.8 0,0 5.4,13.8 4.3,17.5 0,0 -3.9,-4.8 -4.4,-6.7 -0.5,-1.9 -4.4,-10.7 -6.5,-13.1 -2,-2.3 -4.1,-3.4 -3.9,-1.8 0.2,1.6 4.1,10.7 -2.8,16.3 0,0 2.3,-7.2 -7.9,-15.4 -7,-5.7 -14.8,-7.4 -25.5,-9.5 -10.6,-2.1 -39.8,-8.7 -51.1,-11.6 -11.2,-2.9 -43.4,-9.5 -52.3,-10.5 -8.7,-0.9 -13.6,-2.6 -13.6,-2.6 z"
   id="path422"
   style="fill:#030000" />&#10;			<path
   class="st51"
   d="m 592.2,724.2 c 2,-2.3 4.1,-3.4 3.9,-1.8 -0.2,1.6 -4.1,10.7 2.8,16.3 0,0 -2.3,-7.2 7.9,-15.4 7,-5.7 15.5,-5.7 26.1,-7.8 10.6,-2.1 39.2,-10.4 50.4,-13.3 11.2,-2.9 42.1,-10.8 51,-11.7 8.9,-1 17,-3.3 17,-3.3 0,0 -26.6,-0.9 -65.7,8 -39.1,8.9 -37.7,8.4 -37.7,8.4 0,0 13.7,-4.2 19.3,-8.6 0,0 -22,4.4 -28.6,7.5 -6.6,3.1 -13,3.2 -28,9.1 -6.1,2.4 -28.3,9.8 -36.3,24.2 0,0 2.2,-2.1 10,-6 z"
   id="path423"
   style="fill:#030000" />&#10;		</g>&#10;	</g></g>&#10;	</g>&#10;</g>&#10;</svg>
