<?xml version="1.0" encoding="utf-8"?>
<!-- Generator: Adobe Illustrator 26.0.1, SVG Export Plug-In . SVG Version: 6.00 Build 0)  -->
<svg version="1.1" xmlns="http://www.w3.org/2000/svg" xmlns:xlink="http://www.w3.org/1999/xlink" x="0px" y="0px"
	 viewBox="0 0 600 600" style="enable-background:new 0 0 600 600;" xml:space="preserve">
<style type="text/css">
	.st0{fill:#F4EFDF;stroke:#000000;stroke-width:1.4642;stroke-miterlimit:10;}
	.st1{fill:#37342F;stroke:#000000;stroke-width:1.4642;stroke-miterlimit:10;}
	.st2{opacity:0.28;}
	.st3{fill:none;stroke:#000000;stroke-width:1.4642;stroke-miterlimit:10;}
	.st4{fill:#59493D;}
	.st5{fill:#FFFFFF;stroke:#000000;stroke-width:1.4642;stroke-miterlimit:10;}
	.st6{fill:#4F4F4F;stroke:#000000;stroke-width:1.4642;stroke-miterlimit:10;}
	.st7{fill:#A7A9A7;stroke:#000000;stroke-width:1.4642;stroke-miterlimit:10;}
	.st8{fill:#485D4A;stroke:#000000;stroke-width:1.9522;stroke-miterlimit:10;}
	.st9{fill:none;stroke:#000000;stroke-width:0.4881;stroke-miterlimit:10;}
	.st10{fill:#485D4A;}
	.st11{fill:#43392E;}
	.st12{fill:#43392E;stroke:#000000;stroke-width:1.9522;stroke-miterlimit:10;}
	.st13{fill:#28352A;}
	.st14{fill:#635F3B;}
	.st15{fill:none;stroke:#000000;stroke-width:0.9761;stroke-miterlimit:10;}
	.st16{fill:#7C735F;stroke:#000000;stroke-width:1.9522;stroke-miterlimit:10;}
	.st17{fill:#A09989;}
	.st18{fill:#28352A;stroke:#000000;stroke-width:1.9522;stroke-miterlimit:10;}
	.st19{fill:#D8D8D8;}
	.st20{fill:none;stroke:#000000;stroke-width:0.9761;stroke-linecap:round;stroke-linejoin:round;stroke-miterlimit:10;}
	.st21{fill:#5B5445;stroke:#000000;stroke-width:1.9522;stroke-miterlimit:10;}
	.st22{opacity:0.43;}
	.st23{fill:#DDDDDD;stroke:#000000;stroke-width:1.4642;stroke-miterlimit:10;}
	.st24{fill:#756F65;}
	.st25{fill:#F4EFDF;}
	.st26{fill:#3A0F0F;}
	.st27{fill:#3F0E0E;}
	.st28{fill:none;stroke:#000000;stroke-width:0.4881;stroke-linecap:round;stroke-linejoin:round;stroke-miterlimit:10;}
	.st29{stroke:#000000;stroke-width:1.4642;stroke-miterlimit:10;}
	.st30{fill:#262728;}
	.st31{opacity:0.75;fill:#FFFFFF;}
	.st32{fill:#AA9D7B;stroke:#000000;stroke-width:0.244;stroke-miterlimit:10;}
	.st33{fill:#37342F;}
	.st34{opacity:0.32;}
	.st35{fill:#09568A;stroke:#000000;stroke-width:1.4642;stroke-miterlimit:10;}
	.st36{fill:#000002;}
	.st37{fill:#FAFFFF;}
	.st38{fill:#030000;}
	.st39{fill:#495D4A;stroke:#000000;stroke-width:1.9522;stroke-miterlimit:10;}
	.st40{fill:#564D36;stroke:#000000;stroke-width:1.9522;stroke-miterlimit:10;}
	.st41{fill:none;stroke:#000000;stroke-width:1.9522;stroke-miterlimit:10;}
	.st42{fill:#817B66;stroke:#000000;stroke-width:1.9522;stroke-miterlimit:10;}
	.st43{fill:#514E3F;stroke:#000000;stroke-width:1.4642;stroke-miterlimit:10;}
	.st44{fill:#262314;stroke:#000000;stroke-width:1.4642;stroke-miterlimit:10;}
	.st45{fill:#173A50;stroke:#000000;stroke-width:1.9522;stroke-miterlimit:10;}
	.st46{opacity:0.86;fill:#7CA3B0;}
</style>
<g id="Layer_1">
</g>
<g id="Layer_19">
</g>
<g id="Layer_20">
</g>
<g id="Tail">
</g>
<g id="right_leg">
</g>
<g id="Left_leg">
</g>
<g id="body">
</g>
<g id="belt">
</g>
<g id="Face">
</g>
<g id="Left_ear">
</g>
<g id="Right_ear">
</g>
<g id="White_mouth">
</g>
<g id="Closed_mouth">
	<g id="Mouth_copy">
	</g>
</g>
<g id="Mouth">
</g>
<g id="wide_opened_mouth">
	<g id="Mouth_copy_2">
	</g>
</g>
<g id="Nose">
</g>
<g id="Nose_hair_2">
</g>
<g id="Nose_hair_1">
</g>
<g id="Eye_brow">
</g>
<g id="white_part_of_eyes">
	<g id="Eyes_opened_copy">
	</g>
</g>
<g id="eyes_2">
	<g id="Layer_29">
	</g>
</g>
<g id="eyes_1">
	<g id="Layer_30">
	</g>
</g>
<g id="Opened_eye_cover">
</g>
<g id="Eyes_closed">
	<g id="Eyes_copy">
	</g>
</g>
<g id="cap">
</g>
<g id="Glasses">
	<g>
		<g>
			<g>
				<g>
					<path class="st0" d="M286.4,393.4c0,0-11.8,16.9,18.4,58.3c16,21.9,28.1,24.4,54.1,23.6l-4.1-2.8c0,0,21.3,4.6,38.8-1.6
						c0,0-11.5,1.7-15.1-1c0,0,4.7,0.2,8.2,0.5c3.5,0.3,7.1-2.2,13.5-2c6.4,0.2,19.6,4.7,36.8-5.4c0,0-7.4,0.1-9.1-0.9
						c0,0,11.2-1.5,16.1-4.5s8.1-6.1,8.1-6.1s-4.8,0-5.4,0s11.9-0.4,19.9-19.1c8.2-19.3,1.9-8.1,1.9-8.1s7.4-10.8,3.7-24.8
						c0,0-1.7-0.6-2.7-1.1c-1-0.5-1.7-5.8-12.3-8.8h4.3c0,0-5.3-3.9-17.3-5.1c-12-1.2-20.4-0.1-24.9,2.4s-0.4-1-0.4-1
						s-1.6-0.2-7.7,5s-19,12.1-28.8,10.6c-9.8-1.5,0.8-0.1,3.7-1.7c2.9-1.6-29.8,1.1-37-6C337.8,382.9,293.8,371.5,286.4,393.4z"/>
					<path class="st1" d="M417.6,387.9l3.8-1.8c0,0-3.4,3.3-1.9,5c1.5,1.6,4.3,2.1,7.2,2.4c3,0.2,4.7,5.2,5.7,7.2c1,2,5.2,4,7.7,4
						c0,0-4.7,5.2-1.2,8c3.5,2.7,5.5,6.9,5.7,10c0.2,3.2,2.7,4.1,2.7,0.1c0-4.1,2,7.6-1.5,12.1c-3.5,4.5,0.5,8.3,2.5,7.4
						c1-0.5-3,3.3-4.2,6.6c-1.2,3.2,4.7,2.9,4.7,2.9l3.1,0c0,0-4.1,8.2-24.2,10.6h-2.3c0,0,4.2-4.3,4-6c-0.2-1.7-6.5,1.5-7.2,1
						c-0.7-0.5,4-3.5,4.3-6.5c0.3-3-4.7-3.3-4.7-3.3s4.5-5.8,5.3-8.6c0.8-2.8,1.5-7.3-0.7-9.5c-2.2-2.2-4.7,4-4.7,4s2.6-6,1.1-11.9
						c-0.5-1.9-5.6-3.6-6.4-1.2c-0.6,1.7,1-6.7,0-7.6c-4.1-3.9-5.9-4.7-7.8-4.1l0.3-2.9c0,0,0.6-7.7-11.3-6.6c0,0,7.6-3.5,12.3-7.1
						c4.6-3.6,8.7-5.7,8.7-5.7L417.6,387.9z"/>
					<path class="st1" d="M348.4,391.8l5.4,4.7c0,0-5.3-0.4-4.7,2.2s0.5,3.1,3.5,5.4c3,2.3,2,7,1.9,9.6s-0.8,5.8,1.8,7.6
						c0,0-4.4,2.1-2.4,7c2,5-0.5,8.9-2.2,12.1c-1.7,3.1,0.8,7.6,3.3,3.8s1,8.2-5.4,10c-6.4,1.8-4.5,8.1-1.9,8.6
						c1.4,0.3-5.2,1-8.5,3.2c-3.3,2.2,3.2,6,3.2,6l13.6,3.5c0,0-14.6,2.5-31.1-4.8c0,0-3.5-2.6-6.5-5.5c-2.7-2.5-6.9-6.1-6.9-6.1
						s5.7,4.1,6.5,2.4c0.8-1.7-0.7-6.7-1.6-7.5c-0.7-0.7,3.8,2,6-0.5s-3.3-7.8-3.3-7.8s5.1,0.7,7.7-1.3c2.6-2.1,1.2-5.1,0.2-8.6
						c-0.9-3.5-4-6.4-4-6.4s4.6,3.2,6.7-3.2c0.7-2.2-1.7-7.9-4-6.3c-1.6,1.2,4.5-4.4,4-5.9c-1.9-6.5-2.9-8-5.3-8.7
						c0,0,3.7-3.3,4.4-6c0.6-2.7-4.4-6.4-4.4-6.4s7.4-6.4,1-9.6c0,0,6.1,1.7,13.3,4.1c6.7,2.2,12.4,2.9,12.4,2.9L348.4,391.8z"/>
					<path class="st1" d="M386.6,401.5l3-0.4c0,0-0.2,4.6,0.7,6.6c0.9,2,0.3,4.6,3,5.8c2.7,1.3,5.2,1.1,4.3,3.1
						c-1.3,2.8-1.1,4.6,1.9,3.2c0,0-0.1,1.4,2.2,5.1c1.8,3,3.2,0.9,2.6,3.1c-0.2,0.6-0.6,2.1-1,3.4c-0.6,1.7,2.2,1.6,3.4,1.7
						c1,0.1,0.6-0.2-0.5,3.8c-0.6,2,3.1,4.4,4.6,5.9c0.8,0.8,1.3,0.6-0.4,1.6c-7.9,4.9,2.3,3.3,2.1,4.2c-0.3,1.9-4.6,3.6-6.5,5.6
						c-2.7,2.8,4.4,2.6,4.9,2.3c1-0.5-1.6,5.8-3.9,8.4c-2.3,2.6-6.6,3.7-6.6,3.7l6.5,0.4c0,0-10.3,6.9-29.9,2.1l-2.1-0.8
						c0,0,5.4-2.6,5.8-4.2s-6.6-0.9-7.1-1.6s5-1.9,6.3-4.6c1.4-2.7-3.2-4.7-3.2-4.7s0.1-3.1,1.8-5.4c1.8-2.4,4.9-7.6,3.6-10.4
						c-1.3-2.8-4.3-2.5-4.3-2.5s4.6-4.3,0.7-12.9c-3.9-8.6-5.5-7.7-7.9-7.8l2-6.9c0,0-0.7-8.3-12.2-11.5c0,0,7.4,1,13.3,1.1
						c4.7,0.1,14.5,0.8,14.5,0.8L386.6,401.5z"/>
					<path class="st2" d="M370,473.8c-0.5-5.1-0.8-10.1-1-15.2c-0.3-8-0.5-16.1-1-24.1c-1.3-5.5-3-10.8-4.9-16.2
						c-1.5-4.3-3.1-8.6-4.7-12.9c-1.5-3.1-3.1-6.2-4.8-9.3c-1.9-0.7-3.5-1.5-4.5-2.5c-11.2-11-55.3-22.4-62.6-0.5
						c0,0-11.8,16.9,18.4,58.3c16,21.9,28.1,24.4,54.1,23.6l-4.1-2.8C354.9,472.2,361.3,473.6,370,473.8z"/>
				</g>
				<path class="st1" d="M461.5,389.7c0,0-11.7-4.4-14.5-4.7l-8.8-0.8l11.6,2.8l-9.1,0.1c0,0,6.1,0.5,12.3,7.3
					c6.1,6.8,2,13.5,2,13.5s3-2.6,6.5,2.4c3.5,4.9,2.3,7.4,2.3,7.4s0.8-0.8,4-1.3c3.2-0.5,0.6,8.1,0.6,8.1s7.1-9.3,3.7-24.8
					l-2.7-1.1c0,0-4.5-7.5-12.3-8.8H461.5z"/>
				<path class="st1" d="M292.4,386.1c0,0,3-2,6.9-3.9l16-1.4l-5.3,6.8l4.2,7.6c0,0-2.7,1.1-6.6,8.5c-2.3,4.4,5.7,13.5,5.7,13.5
					s-5.6-2.2-8.1,6.6c-2.6,8.8,0.3,11.8,0.3,11.8s-1.6-0.8-6.4,0.1s3.1,11.9,3.1,11.9s-14.7-9.8-17.5-33.8l-1-7.1
					c0,0-1.2-7.9,4.6-16.3L292.4,386.1z"/>
				<path class="st3" d="M299.3,382.2"/>
			</g>
			<g>
				<g>
					<g>
						<path class="st4" d="M206.3,552.2c-11.5,0-19.1-1.5-24.7-4.9l-0.5-0.3l0.2-0.6c0.1-0.4,3.6-9.1,10-15.2c3-2.9,5-4.6,6.3-5.8
							c1.5-1.3,2.3-2,2.8-2.8l0.2-0.3c1.3-1.9,4.4-6.4,9.9-11.6c5.5-5.1,7.7-25.9,7.2-31.6c0-0.6-1.1-15.2-0.2-19.7
							c0.6-3.3,16.5-11.9,32.1-11.9c12.2,0,21.5,5.2,27,15.2l0.1,0.2l-0.1,0.3c0,0.1-2.5,12.6-6.1,22.2c-3.7,10-4.1,16.9-4,20.1
							c0.1,4.4,0.7,10.7,1.1,11.6c0.3,0.7,0.2,1.8-0.4,2.6c-0.5,0.7-1.1,1.2-1.9,1.4c1.2,1.5,2.7,4.4,1.7,8.5
							c-0.4,1.8-0.7,3.2-0.8,4.1c-0.3,2.1-0.5,3.1-2.3,3.5c-0.5,0.1-1.2,0.2-2.1,0.4c-3.1,0.6-8.9,1.6-13,3.8
							c-1.3,0.7-2.4,1.6-3.5,2.6c-3.3,2.8-7.4,6.4-21,7.3C218.4,551.8,212.1,552.2,206.3,552.2z"/>
						<path d="M249.6,448.2c10,0,20.2,3.6,26.3,14.8c0,0-2.5,12.4-6.1,22.1c-3.6,9.7-4.2,16.6-4,20.4c0.1,3.7,0.6,10.7,1.1,11.8
							c0.5,1-0.6,3.2-2.6,3.2c-0.2,0-0.4,0-0.6-0.1c0,0,3.9,3.2,2.6,9c-1.4,5.7-0.6,6.6-2.6,7.1c-1.9,0.5-9.9,1.4-15.3,4.2
							c-5.4,2.9-6.2,8.6-24.2,9.8c-6.4,0.4-12.5,0.8-18.1,0.8c-9.9,0-18.2-1.1-24.3-4.8c0,0,3.5-8.8,9.8-15c6.4-6.1,8.1-7.1,9.2-8.7
							c1.1-1.6,4.3-6.4,10-11.7c5.7-5.4,8-26.3,7.5-32.2c0,0-1.1-15-0.2-19.5C218.8,456.8,234.1,448.2,249.6,448.2 M249.6,446.8
							L249.6,446.8c-15.7,0-32,8.6-32.8,12.5c-0.9,4.6,0.2,19.3,0.2,19.9c0.5,6.4-2,26.4-7,31c-5.5,5.2-8.8,9.9-10,11.7l-0.2,0.3
							c-0.5,0.7-1.2,1.4-2.7,2.7c-1.3,1.2-3.3,3-6.3,5.8c-6.5,6.3-10,15.1-10.2,15.5l-0.5,1.1l1.1,0.6c5.7,3.5,13.4,5,25,5
							c5.8,0,12.2-0.4,18.2-0.8c13.8-1,18-4.6,21.4-7.5c1.1-1,2.1-1.8,3.4-2.5c4-2.1,9.7-3.1,12.7-3.7c1-0.2,1.7-0.3,2.2-0.4
							c2.2-0.6,2.5-2,2.8-4.1c0.2-1,0.4-2.3,0.8-4.1c0.9-3.8-0.2-6.6-1.3-8.3c0.5-0.3,1-0.8,1.4-1.3c0.7-1.1,0.9-2.4,0.4-3.3
							c-0.3-0.8-0.8-6.8-1-11.3c-0.1-3.2,0.3-9.9,3.9-19.8c3.6-9.7,6.1-22.2,6.1-22.4l0.1-0.5l-0.3-0.5
							C271.6,452.1,262.1,446.8,249.6,446.8L249.6,446.8z"/>
					</g>
					<path class="st5" d="M265.2,535.3c0,0,1.1,4.9,0.5,5.9c-0.6,1-0.2,2.6-6.9,3.6c-6.6,1-9.7,1.2-12.6,3.6
						c-2.9,2.4-6,9.7-19.2,11.5c-13.2,1.7-23.2,2.5-31.5,0c-8.3-2.5-13-4.2-13.6-7.7c-0.6-3.5-1.6-6.4,0-5.5
						c1.6,0.9,4.5,3.2,11.8,3.9c7.3,0.7,22.6,1.3,33.5-0.2c10.9-1.5,13.8-3.4,18-7.2c4.3-3.9,12.1-5.4,14-5.7
						C261.1,537.1,264.9,536.9,265.2,535.3z"/>
					<path class="st3" d="M197.9,526.1c0,0,4.2-2.6,19.3,0c15.1,2.6,19.6,14,24.2,20"/>
					<g>
						<path d="M266.4,521.8c-6.4-0.3-12.7-1.9-18.6-4.2c3.1,0.8,6.2,1.6,9.3,2.2c3.1,0.4,6.3,0.5,9.4,0.6L266.4,521.8L266.4,521.8z"
							/>
					</g>
					<path class="st3" d="M244.9,527.4c0,0,5.6,5.9,5.5,13.4"/>
					<path d="M245.3,543.2l5.3-2.4l-3.5,3.7l2.6-1.6l-1.9,1.6h2.9c0,0-2.8,1.6-3.5,2.7s-6.2,6.8-6.2,6.8l1-2.7l-5.7,2.7l6.2-4.6
						c0,0-5.5,2.4-6.2,2.6c-0.6,0.2,5.3-3.8,5.3-3.8s-6.3,1.7-7.5,1.5C232.7,549.8,243,548,245.3,543.2z"/>
					<path class="st1" d="M243.2,454.9c0,0-10.9-3.4-17.3,0c-6.4,3.4-6.5,5.3-6.5,5.3s4.1,22,4.2,25c0.1,3-0.5,8.6-3.4,14.6
						c-2.9,6-4,8.4-4,8.4l12.2,2.8c0,0,4.6-5.1,8.1-11.2c3.5-6.1,7.7-13.7,8-22.3S243.2,454.9,243.2,454.9z"/>
					<g>
						<path class="st3" d="M218.6,456.9c0,0,2.2,13.4,2.6,17.8s3.8,14.7,0,21.9s-5.3,11.2-7.1,14.8c-1.8,3.6-9.2,12-14.4,12.3"/>
						<path class="st3" d="M215.7,455.6c0,0,2.2,13.4,2.6,17.8c0.4,4.4,3.8,14.7,0,21.9s-5.3,11.2-7.1,14.8
							c-1.8,3.6-5.2,7.6-10.1,10.3"/>
					</g>
					<g>
						<path class="st3" d="M246.5,531.4c0.1,0.9-5.9,4.5-6.5,4.5s-2.4-4.2-5-7.5c-2.5-3.2-6.4-7.2-7.2-10.8s-0.1-3.8,4.9-10.4
							c5-6.6,5.8-11.8,8.2-17c2.4-5.2,2.4-12.4,2.6-18.6c0.2-6.2-1.3-18-1.3-18"/>
						<path class="st3" d="M245.9,457.9c0,0,0.2,9.9,0,15.5c-0.2,5.7-0.4,12.4-2.3,17.3c-2,5.1-3.4,9.1-7.4,15.8
							c-3.8,6.5-6.7,7.9-6.2,10.1c0.8,3.3,3.2,6.1,5.5,9.1c2.3,3,5,7,5.5,7c0.5,0,3.7-2.7,4.9-3.3"/>
						<path class="st3" d="M244.1,533.6c1.2-0.8,2.6-2.1,2.6-2.1l-0.7-1.6c-3.7-5.7-3.9-11-3.7-13.8c0.2-2.7,4.5-10.3,6.6-14.6
							c2.1-4.3,4-13.7,4-13.7s3.4-12.1,3.2-23.3"/>
						<line class="st3" x1="237" y1="527.4" x2="243.1" y2="523.6"/>
						<line class="st3" x1="237.7" y1="529.2" x2="243.7" y2="525.4"/>
					</g>
					<g>
						
							<ellipse transform="matrix(0.8585 -0.5128 0.5128 0.8585 -231.7154 194.1432)" class="st6" cx="236" cy="517" rx="2.2" ry="2.3"/>
						<g>
							<ellipse class="st6" cx="251.5" cy="463.4" rx="2.7" ry="2.5"/>
							<ellipse class="st6" cx="250.6" cy="475.7" rx="2.7" ry="2.5"/>
							<ellipse class="st6" cx="248.8" cy="486.7" rx="2.5" ry="2.3"/>
							
								<ellipse transform="matrix(0.27 -0.9629 0.9629 0.27 -299.6553 598.6142)" class="st6" cx="244.9" cy="496.9" rx="2.2" ry="2.5"/>
							
								<ellipse transform="matrix(0.27 -0.9629 0.9629 0.27 -314.7377 600.6979)" class="st6" cx="238.8" cy="507.9" rx="2.2" ry="2.5"/>
							<g>
								<path class="st7" d="M250.9,476c0,0,0.9-0.8-1.4-1.9c-2.3-1.1-11.8-4.1-16-6.1s-12.8-6.6-14-8.4s1.1,6.3,1.1,6.3
									s11,5.4,13.8,6.3C238.1,473.4,249.7,478.3,250.9,476z"/>
								<path class="st7" d="M248.9,486.8c0,0,0.7-1.4-1.6-2.5c-2.3-1.1-11.7-4.2-15.8-6.3s-8.9-4.2-10-6c-1.2-1.7-0.1,4.3-0.1,4.3
									s9.2,5.3,12.1,6.3C237.1,483.8,248.1,488.5,248.9,486.8z"/>
								<path class="st7" d="M245.4,496.8c0,0,1.2-1-2.8-3.4c-2.1-1.3-7.5-2.8-11.8-4.5c-4.3-1.8-8.3-4.2-8.3-3.8
									c0.1,1.9,0.1,3,0.1,3s4.4,2.5,7.3,3.4C233.6,492.9,244.1,498.7,245.4,496.8z"/>
								<path class="st7" d="M239.3,508.1c0,0,2.4-0.4-2-5.1c-2-2.2-5-4-9.3-5.8c-4.3-1.8-6.4-1.1-6.4-0.5c0,1.2-0.6,1.9-0.6,1.9
									s5.1,0.3,7.6,1.8C237.5,505.7,236.2,508.8,239.3,508.1z"/>
								<path class="st7" d="M236.3,517c0,0,1.1-0.9-1.8-4c-2.1-2.1-5.9-4-9.6-4.9c-5.4-1.3-9.8-1-10.1-0.6c-0.9,1-1.5,2.1-1.5,2.1
									s9.8,0.8,13.5,2.1C235,514.7,233.2,517.8,236.3,517z"/>
								<path class="st7" d="M251.9,463c0,0,0.5-0.9-2.3-1.6c-2.8-0.7-10-1.4-18.5-6.6c-8.5-5.2-12.2-4.5-12.3-4
									c-0.1,0.5,5.6,6.1,13.4,9.3c7.8,3.2,13.8,3.8,15.8,3.9C250.1,464.2,251.4,464.7,251.9,463z"/>
							</g>
							<g>
								<path class="st7" d="M215.8,470.3c0,0,0,0.9,2,0.5c2-0.4,9.4-2.8,13.1-3.4c3.7-0.6,10.7-2.7,12.1-3.5
									c0.6-0.4-6.2-2.1-6.2-2.1s-4.5,1.6-9.8,3.3C224,466,215.2,468.4,215.8,470.3z"/>
								<path class="st7" d="M217.8,482.7c0,0,0.2,1.7,2.1,1c1.9-0.6,8-3.7,11.4-5.1c3.7-1.5,9.2-3.1,11-3.4
									c0.8-0.1-4.4-1.8-4.4-1.8s-6.6,0.5-11.5,2.9C223.8,477.7,216.9,481,217.8,482.7z"/>
								<path class="st7" d="M216.9,493.2c0,0,0.2,1.7,2.1,1c1.9-0.6,5.8-3.2,9.2-4.5c3.5-1.4,7.7-2.1,12.5-3.4
									c2.7-0.7-3.7-2.4-3.7-2.4s-6.6,0.5-11.5,2.9C222.8,488.2,215.9,491.5,216.9,493.2z"/>
								<path class="st7" d="M214.1,504c0,0-0.3,1.1,1.6,0.4c1.9-0.6,5.2-2.2,8.1-4.1c3.1-2,8.3-3.7,13.2-4.8
									c1.1-0.2-3.6-2.4-3.6-2.4s-6.6,1.3-12.2,4.3C218.6,498.8,213.2,502.2,214.1,504z"/>
								<path class="st7" d="M210.8,511.1c0,0,1.4,0.9,3.3,0.2s4.4-1.2,7.7-2.7c3.5-1.6,6-2.5,10.9-5.2c0.9-0.5-2.2-1.9-2.2-1.9
									s-7,2.8-12.7,5.7C215.1,508.6,209.8,509.3,210.8,511.1z"/>
							</g>
						</g>
					</g>
				</g>
				<g>
					<path class="st8" d="M231,475.3c0,0-3.2,0.6-7.7-3.2c-4.5-3.9-12.3-11.2-13.6-12.7c-1.3-1.5-2.7-4,1.2-7.6s6.5-7.5,6-9
						c-0.5-1.5-3.3-6.1-2-11.1c1.3-5,3-7.8,4.8-10c0,0-1.7-12.8,8.8-25.1c10.5-12.3,22.8-44.6,22.8-44.6s33-13.4,49.5,1
						c0,0,7.1,18.8,6.5,33.1s-11.4,32.6-9.8,35.1c1.6,2.4,2.7,4,8,4.6l0.4,6.4c0,0-10.3-1.8-11.2-1.9s-1.8-1.6-1.9-0.1
						c0,1.5,3.3,5.6,2.8,8.8s-0.7,5-1.8,6.5c-1.2,1.5-0.7,5.5-0.2,6.1c0.5,0.7,4.3,5.6,2,7c-2.3,1.3-2.2,2.8-10.6,5.6
						c-8.5,2.8-14.5,4.2-17.8,5.5s-9.2,3.2-20.8,4.5S231.6,475.2,231,475.3z"/>
					<path class="st3" d="M237.9,382.9c0,0-0.2,12.3,8.5,27.3"/>
					<g>
						<path d="M261.1,461.7c-10.1,6.1-22.8,5.8-33.9,2.7c-3.7-1-7.5-2.2-10.8-4.2c1.8,0.8,3.6,1.3,5.5,1.8
							C234.7,465.3,248.6,467,261.1,461.7L261.1,461.7z"/>
					</g>
					<g>
						<path d="M215.3,433.3c-0.4,6.1,3.7,10.9,8.7,14c4.9,3.4,10.3,6.2,16.2,7.6c-5.9-1.2-11.5-3.8-16.6-7c-5.4-3-10-8.1-9.8-14.7
							C213.8,433.2,215.3,433.3,215.3,433.3L215.3,433.3z"/>
					</g>
					<g>
						<path d="M221,414c-2.4,7.7,2.8,17.1,6.8,23.5c0,0-1.9-2.6-1.9-2.6c-3.7-5.4-7.1-11.4-7.2-18.2c0-1.3,0.1-2.3,0.5-3.6
							C219.3,413.1,221,414,221,414L221,414z"/>
					</g>
					<path class="st9" d="M295.5,437c0,0,1.8,6.3-4.4,10.3s-8.6,5.9-8.6,5.9"/>
					<g>
						<path d="M265.1,462c6.2-1.4,12.4-3.2,17.7-6.6c3.9-3,7.4-6.6,10.3-10.4c0,0,1.2,0.9,1.2,0.9c-3.2,3.9-6.9,7.4-11,10.3
							C277.8,459.4,271.4,460.9,265.1,462L265.1,462z"/>
					</g>
					<path class="st9" d="M271.3,463c0,0,11.2-2.8,15.6-6.6c3.6-3,6.1-6,6.2-7.7"/>
					<g>
						<path d="M289.7,437.5c-2.2,1.3-4.7,2.6-7.3,2.7C284.9,439.5,287.2,438.2,289.7,437.5L289.7,437.5z"/>
					</g>
					<path class="st8" d="M279.6,465.9c0,0-3.9,11.6-17.2,12.6c-13.3,1-14.2,0.8-16-1c-1.8-1.8-3.3-2.9-6.9-2.6
						c0,0,17.7-1.9,22.7-3.5C267.2,469.6,279.6,465.9,279.6,465.9z"/>
					<g>
						<path d="M219.6,431.5c1.1,7.4,6.1,13.8,12.7,17.2c-0.8-0.4-1.7-0.8-2.5-1.2C224.1,444.2,219.9,438.1,219.6,431.5L219.6,431.5z
							"/>
					</g>
					<path class="st10" d="M313.2,391c0,0-15.7-5-15.7,3.4c0,13-4.1,35.8,8.7,36.6C317.2,431.7,315.3,408.1,313.2,391z"/>
				</g>
				<g>
					<path class="st11" d="M283.7,415.8c0,0,10,7.6,15.1,10.6"/>
					<path d="M283.7,415.8c5.7,2.6,10.6,6.3,15.1,10.6C292.9,424.4,287.7,420.5,283.7,415.8L283.7,415.8z"/>
				</g>
				<path d="M306.6,431.2c-4.5,0.3-9.1,0.1-13.6-0.5c-3.3-0.5-6.4-1.1-9.5-2.3c-4.6-1.8-9.3-3.5-13.2-6.6c2.3,2.4,5.3,4,8.2,5.6
					c3,1.5,6,3,9.3,3.9c6.2,1.6,12.6,2.2,19,1.8C306.7,432.4,306.7,431.8,306.6,431.2z"/>
			</g>
			<g>
				<g>
					<g>
						<g>
							<path class="st4" d="M408.4,552.2c-5.8,0-12.1-0.4-18.1-0.8c-13.5-0.9-17.6-4.5-21-7.3c-1.1-1-2.2-1.9-3.5-2.6
								c-4.1-2.2-9.8-3.2-13-3.8c-0.9-0.2-1.7-0.3-2.1-0.4c-1.8-0.5-1.9-1.4-2.3-3.5c-0.2-1-0.4-2.3-0.8-4.1c-1-4.1,0.5-7,1.7-8.5
								c-0.8-0.2-1.4-0.7-1.9-1.4c-0.6-0.9-0.7-1.9-0.4-2.6c0.4-0.9,0.9-7.2,1.1-11.6c0.1-3.2-0.3-10.1-4-20.1
								c-3.6-9.7-6.1-22.1-6.1-22.2l-0.1-0.3l0.1-0.2c5.5-9.9,14.8-15.2,27-15.2c15.6,0,31.4,8.6,32.1,11.9
								c0.9,4.5-0.2,19.1-0.2,19.7c-0.5,5.7,1.8,26.5,7.2,31.6c5.5,5.1,8.6,9.6,9.9,11.6l0.2,0.3c0.5,0.8,1.3,1.5,2.8,2.8
								c1.3,1.2,3.3,3,6.3,5.8c6.4,6.1,9.9,14.8,10,15.2l0.2,0.6l-0.5,0.3C427.5,550.7,419.9,552.2,408.4,552.2
								C408.4,552.2,408.4,552.2,408.4,552.2z"/>
							<path d="M365.1,448.2c15.5,0,30.8,8.6,31.4,11.3c0.9,4.5-0.2,19.5-0.2,19.5c-0.5,5.9,1.7,26.8,7.5,32.2
								c5.7,5.4,8.9,10.1,10,11.7c1.1,1.6,2.9,2.6,9.2,8.7c6.4,6.1,9.8,15,9.8,15c-6.1,3.7-14.4,4.8-24.3,4.8
								c-5.6,0-11.6-0.4-18.1-0.8c-17.9-1.2-18.8-7-24.2-9.8c-5.4-2.9-13.3-3.7-15.3-4.2c-1.9-0.5-1.2-1.4-2.6-7.1
								c-1.4-5.7,2.6-9,2.6-9c-0.2,0-0.4,0.1-0.6,0.1c-2,0-3-2.2-2.6-3.2c0.5-1.1,1-8.1,1.1-11.8c0.1-3.7-0.4-10.7-4-20.4
								c-3.6-9.7-6.1-22.1-6.1-22.1C344.9,451.8,355,448.2,365.1,448.2 M365.1,446.8c-12.4,0-22,5.4-27.6,15.6l-0.3,0.5l0.1,0.5
								c0,0.1,2.5,12.6,6.1,22.4c3.7,9.9,4,16.7,3.9,19.8c-0.2,4.5-0.7,10.4-1,11.3c-0.4,1-0.3,2.2,0.5,3.3c0.4,0.6,0.8,1,1.4,1.3
								c-1.1,1.8-2.2,4.6-1.3,8.3c0.4,1.8,0.6,3.1,0.8,4.1c0.4,2.1,0.6,3.5,2.8,4.1c0.5,0.1,1.2,0.3,2.2,0.4
								c3.1,0.5,8.8,1.6,12.7,3.7c1.2,0.7,2.2,1.5,3.4,2.5c3.4,2.9,7.6,6.6,21.4,7.5c6,0.4,12.4,0.8,18.2,0.8c11.6,0,19.3-1.5,25-5
								l1.1-0.6l-0.5-1.1c-0.1-0.4-3.7-9.2-10.2-15.5c-3-2.9-5-4.7-6.3-5.8c-1.5-1.3-2.2-2-2.7-2.7l-0.2-0.3
								c-1.2-1.8-4.5-6.5-10-11.7c-5-4.6-7.5-24.6-7-31c0-0.6,1.1-15.3,0.2-19.9C397.1,455.4,380.8,446.8,365.1,446.8L365.1,446.8z"
								/>
						</g>
						<path class="st5" d="M349.5,535.3c0,0-1.1,4.9-0.5,5.9c0.6,1,0.2,2.6,6.9,3.6c6.6,1,9.7,1.2,12.6,3.6c2.9,2.4,6,9.7,19.2,11.5
							c13.2,1.7,23.2,2.5,31.5,0s13-4.2,13.6-7.7c0.6-3.5,1.6-6.4,0-5.5s-4.5,3.2-11.8,3.9s-22.6,1.3-33.5-0.2s-13.8-3.4-18-7.2
							c-4.3-3.9-12.1-5.4-14-5.7C353.6,537.1,349.8,536.9,349.5,535.3z"/>
						<path class="st3" d="M416.8,526.1c0,0-4.2-2.6-19.3,0s-19.6,14-24.2,20"/>
						<g>
							<path d="M348.2,520.4c6.4,0.1,12.6-0.9,18.7-2.7c-1.5,0.5-3,1-4.5,1.5c-4.5,1.6-9.4,2.2-14.1,2.6
								C348.3,521.8,348.2,520.4,348.2,520.4L348.2,520.4z"/>
						</g>
						<path class="st3" d="M369.8,527.4c0,0-5.6,5.9-5.5,13.4"/>
						<path d="M369.4,543.2l-5.3-2.4l3.5,3.7l-2.6-1.6l1.9,1.6h-2.9c0,0,2.8,1.6,3.5,2.7c0.7,1.1,6.2,6.8,6.2,6.8l-1-2.7l5.7,2.7
							l-6.2-4.6c0,0,5.5,2.4,6.2,2.6c0.6,0.2-5.3-3.8-5.3-3.8s6.3,1.7,7.5,1.5C382,549.8,371.7,548,369.4,543.2z"/>
						<path class="st1" d="M371.5,454.9c0,0,10.9-3.4,17.3,0c6.4,3.4,6.5,5.3,6.5,5.3s-4.1,22-4.2,25c-0.1,3,0.5,8.6,3.4,14.6
							s4,8.4,4,8.4l-12.2,2.8c0,0-4.6-5.1-8.1-11.2c-3.5-6.1-7.7-13.7-8-22.3S371.5,454.9,371.5,454.9z"/>
						<g>
							<path class="st3" d="M396.1,456.9c0,0-2.2,13.4-2.6,17.8c-0.4,4.4-3.8,14.7,0,21.9c3.8,7.2,5.3,11.2,7.1,14.8
								s9.2,12,14.4,12.3"/>
							<path class="st3" d="M399.1,455.6c0,0-2.2,13.4-2.6,17.8c-0.4,4.4-3.8,14.7,0,21.9s5.3,11.2,7.1,14.8
								c1.8,3.6,5.2,7.6,10.1,10.3"/>
						</g>
						<g>
							<path class="st3" d="M368.2,531.4c-0.1,0.9,5.9,4.5,6.5,4.5s2.4-4.2,5-7.5c2.5-3.2,6.4-7.2,7.2-10.8s0.1-3.8-4.9-10.4
								c-5-6.6-5.8-11.8-8.2-17c-2.4-5.2-2.4-12.4-2.6-18.6c-0.2-6.2,1.3-18,1.3-18"/>
							<path class="st3" d="M368.9,457.9c0,0-0.2,9.9,0,15.5c0.2,5.7,0.4,12.4,2.3,17.3c2,5.1,3.4,9.1,7.4,15.8
								c3.8,6.5,6.7,7.9,6.2,10.1c-0.8,3.3-3.2,6.1-5.5,9.1c-2.3,3-5,7-5.5,7c-0.5,0-3.7-2.7-4.9-3.3"/>
							<path class="st3" d="M370.6,533.6c-1.2-0.8-2.6-2.1-2.6-2.1l0.7-1.6c3.7-5.7,3.9-11,3.7-13.8c-0.2-2.7-4.5-10.3-6.6-14.6
								c-2.1-4.3-4-13.7-4-13.7s-3.4-12.1-3.2-23.3"/>
							<line class="st3" x1="377.7" y1="527.4" x2="371.6" y2="523.6"/>
							<line class="st3" x1="377.1" y1="529.2" x2="371" y2="525.4"/>
						</g>
						<g>
							
								<ellipse transform="matrix(0.5128 -0.8585 0.8585 0.5128 -259.3233 577.0522)" class="st6" cx="378.7" cy="517" rx="2.3" ry="2.2"/>
							<g>
								<ellipse class="st6" cx="363.2" cy="463.4" rx="2.7" ry="2.5"/>
								<ellipse class="st6" cx="364.1" cy="475.7" rx="2.7" ry="2.5"/>
								<ellipse class="st6" cx="365.9" cy="486.7" rx="2.5" ry="2.3"/>
								
									<ellipse transform="matrix(0.9629 -0.27 0.27 0.9629 -120.4272 118.2817)" class="st6" cx="369.8" cy="496.9" rx="2.5" ry="2.2"/>
								
									<ellipse transform="matrix(0.9629 -0.27 0.27 0.9629 -123.1648 120.3547)" class="st6" cx="375.9" cy="507.9" rx="2.5" ry="2.2"/>
								<g>
									<path class="st7" d="M363.8,476c0,0-0.9-0.8,1.4-1.9c2.3-1.1,11.8-4.1,16-6.1c4.2-2.1,12.8-6.6,14-8.4
										c1.2-1.7-1.1,6.3-1.1,6.3s-11,5.4-13.8,6.3C376.6,473.4,365,478.3,363.8,476z"/>
									<path class="st7" d="M365.8,486.8c0,0-0.7-1.4,1.6-2.5c2.3-1.1,11.7-4.2,15.8-6.3s8.9-4.2,10-6s0.1,4.3,0.1,4.3
										s-9.2,5.3-12.1,6.3C377.6,483.8,366.6,488.5,365.8,486.8z"/>
									<path class="st7" d="M369.3,496.8c0,0-1.2-1,2.8-3.4c2.1-1.3,7.5-2.8,11.8-4.5c4.3-1.8,8.3-4.2,8.3-3.8
										c-0.1,1.9-0.1,3-0.1,3s-4.4,2.5-7.3,3.4C381.1,492.9,370.6,498.7,369.3,496.8z"/>
									<path class="st7" d="M375.5,508.1c0,0-2.4-0.4,2-5.1c2-2.2,5-4,9.3-5.8c4.3-1.8,6.4-1.1,6.4-0.5c0,1.2,0.6,1.9,0.6,1.9
										s-5.1,0.3-7.6,1.8C377.2,505.7,378.5,508.8,375.5,508.1z"/>
									<path class="st7" d="M378.5,517c0,0-1.1-0.9,1.8-4c2.1-2.1,5.9-4,9.6-4.9c5.4-1.3,9.8-1,10.1-0.6c0.9,1,1.5,2.1,1.5,2.1
										s-9.8,0.8-13.5,2.1C379.7,514.7,381.5,517.8,378.5,517z"/>
									<path class="st7" d="M362.8,463c0,0-0.5-0.9,2.3-1.6s10-1.4,18.5-6.6s12.2-4.5,12.3-4c0.1,0.5-5.6,6.1-13.4,9.3
										s-13.8,3.8-15.8,3.9C364.7,464.2,363.3,464.7,362.8,463z"/>
								</g>
								<g>
									<path class="st7" d="M398.9,470.3c0,0,0,0.9-2,0.5c-2-0.4-9.4-2.8-13.1-3.4c-3.7-0.6-10.7-2.7-12.1-3.5
										c-0.6-0.4,6.2-2.1,6.2-2.1s4.5,1.6,9.8,3.3C390.7,466,399.5,468.4,398.9,470.3z"/>
									<path class="st7" d="M396.9,482.7c0,0-0.2,1.7-2.1,1c-1.9-0.6-8-3.7-11.4-5.1c-3.7-1.5-9.2-3.1-11-3.4
										c-0.8-0.1,4.4-1.8,4.4-1.8s6.6,0.5,11.5,2.9C390.9,477.7,397.8,481,396.9,482.7z"/>
									<path class="st7" d="M397.8,493.2c0,0-0.2,1.7-2.1,1c-1.9-0.6-5.8-3.2-9.2-4.5c-3.5-1.4-7.7-2.1-12.5-3.4
										c-2.7-0.7,3.7-2.4,3.7-2.4s6.6,0.5,11.5,2.9C391.9,488.2,398.8,491.5,397.8,493.2z"/>
									<path class="st7" d="M400.6,504c0,0,0.3,1.1-1.6,0.4c-1.9-0.6-5.2-2.2-8.1-4.1c-3.1-2-8.3-3.7-13.2-4.8
										c-1.1-0.2,3.6-2.4,3.6-2.4s6.6,1.3,12.2,4.3C396.1,498.8,401.5,502.2,400.6,504z"/>
									<path class="st7" d="M404,511.1c0,0-1.4,0.9-3.3,0.2s-4.4-1.2-7.7-2.7c-3.5-1.6-6-2.5-10.9-5.2c-0.9-0.5,2.2-1.9,2.2-1.9
										s7,2.8,12.7,5.7C399.6,508.6,404.9,509.3,404,511.1z"/>
								</g>
							</g>
						</g>
					</g>
					<g>
						<path class="st8" d="M381,475.3c0,0,3.2,0.6,7.7-3.2s12.3-11.2,13.6-12.7c1.3-1.5,2.7-4-1.2-7.6s-6.5-7.5-6-9
							c0.5-1.5,3.3-6.1,2-11.1s-3-7.8-4.8-10c0,0,1.7-12.8-8.8-25.1c-10.5-12.3-14.8-37-14.8-37s-43.8-21.9-60.3-7.6
							c0,0,5.3,26.9,5.9,41.2c0.6,14.3,1.8,25.5,0.2,27.9c-1.6,2.4-2.7,4-8,4.6l-0.4,6.4c0,0,10.3-1.8,11.2-1.9s1.8-1.6,1.9-0.1
							c0,1.5-3.3,5.6-2.8,8.8s0.7,5,1.8,6.5c1.2,1.5,0.7,5.5,0.2,6.1c-0.5,0.7-4.3,5.6-2,7c2.3,1.3,2.2,2.8,10.6,5.6
							c8.5,2.8,14.5,4.2,17.8,5.5s9.2,3.2,20.8,4.5C377.2,475.5,380.4,475.2,381,475.3z"/>
						<g>
							<path d="M375.1,382.9c-0.6,9.8-4.4,19-9.4,27.3c1.1-2.1,2.2-4.3,3.1-6.5c2.6-6.5,4.5-13.7,4.4-20.8
								C373.1,382.9,375.1,382.9,375.1,382.9L375.1,382.9z"/>
						</g>
						<g>
							<path d="M350.9,461.7c12.5,5.3,26.4,3.6,39.2,0.3c1.9-0.5,3.7-1,5.5-1.8c-3.3,2-7.1,3.2-10.8,4.2
								C373.7,467.5,361,467.8,350.9,461.7L350.9,461.7z"/>
						</g>
						<g>
							<path d="M398.4,433.1c0.2,6.7-4.4,11.9-10,14.9c-5.1,3.2-10.7,5.7-16.6,6.9c5.8-1.4,11.2-4.3,16.1-7.7
								c4.9-3.1,9-7.8,8.6-13.8C396.5,433.3,398.4,433.1,398.4,433.1L398.4,433.1z"/>
						</g>
						<g>
							<path d="M392.7,413.1c2.3,8.4-3.8,17.9-8.6,24.3c4.1-6.6,8.4-14.2,7.2-22.2c-0.1-0.5-0.2-1-0.4-1.3L392.7,413.1L392.7,413.1z
								"/>
						</g>
						<g>
							<path d="M317.4,437.3c-1.6,6.5,3,9.2,7.7,12.5c1.5,1.1,3,2.2,4.5,3.4c-1.5-1.1-3.1-2-4.7-3c-4.3-2.5-8.9-4.7-9.4-10.3
								c-0.1-1-0.1-2,0.1-3.1C315.6,436.8,317.4,437.3,317.4,437.3L317.4,437.3z"/>
						</g>
						<path class="st3" d="M346.9,462c0,0-13.1-2.3-19.2-7.2c-6.1-4.9-9.4-9.5-9.4-9.5"/>
						<g>
							<path d="M340.8,463c-6.5-1.6-13.5-3.6-18.2-8.7c-1.5-1.6-3.3-3.4-3.6-5.6c0.2,1.1,0.9,2.1,1.6,2.9c2.2,2.5,4.7,4.9,7.6,6.5
								C332.2,460.2,336.5,461.7,340.8,463L340.8,463z"/>
						</g>
						<g>
							<path d="M322.3,437.5c2.5,0.7,4.8,2,7.3,2.7C327,440.1,324.5,438.8,322.3,437.5L322.3,437.5z"/>
						</g>
						<path class="st8" d="M332.4,465.9c0,0,3.9,11.6,17.2,12.6s14.2,0.8,16-1c1.8-1.8,3.3-2.9,6.9-2.6c0,0-17.7-1.9-22.7-3.5
							C344.8,469.6,332.4,465.9,332.4,465.9z"/>
						<g>
							<path d="M392.4,431.5c-0.4,6.6-4.5,12.7-10.2,16c-0.8,0.5-1.7,0.8-2.5,1.2C386.3,445.3,391.3,438.9,392.4,431.5L392.4,431.5z
								"/>
						</g>
						<path class="st10" d="M298.8,391c0,0,15.7-5,15.7,3.4c0,13,4.1,35.8-8.7,36.6C294.8,431.7,296.7,408.1,298.8,391z"/>
					</g>
					<g>
						<path class="st11" d="M329.6,414.7c0,0-11.3,7.5-14.6,9.6"/>
						<path d="M329.6,414.7c-4,4.3-9.1,7.6-14.6,9.6C319,420,324.1,416.7,329.6,414.7L329.6,414.7z"/>
					</g>
					<path d="M326.9,427.9c-1.5,0.6-3,1.1-4.5,1.1c-2.4,0.2-5.1,0.1-7.5,0.7c-2.4,0.6-4.7,1.2-7.2,1.4c-0.1,0-0.2,0-0.3,0
						c0,0,0,0,0,0c0.1,0.6,0.1,1.3,0.2,1.9c0.1,0,0.2,0,0.3,0c3.3-0.2,6.5-1.5,9.8-1.9c2.2-0.3,4.6-0.2,6.9-0.7
						c1.1-0.3,2.1-0.7,3-1.1c6.1-2.8,11.7-6.2,17.3-9.8C338.9,422.3,333,425.4,326.9,427.9z"/>
				</g>
				<g>
					<path class="st3" d="M306.1,390.7c0,0,0.4,12.2,0.4,14.7c0,2.5-0.4,13.3-0.1,16.4"/>
					<path class="st3" d="M298.8,391c0,0-1.1,13.5-0.8,17.2s-0.7,14.8,1.5,16.4c2.2,1.7,7,1.1,9.6,0.8c1.9-0.2,5.9-1.9,5.9-6.8
						c0-5.1,0.2-20-0.9-28.3L298.8,391z"/>
					<g>
						<path d="M312.1,390.9c0.8,8.5,0.8,17.1,0.4,25.6c-0.1,1.7,0,3.7-1.4,4.9c-1.4,1.2-3.3,1-5,1.2c-1.7,0.1-3.5,0-5-0.9
							c1.5,0.9,3.3,0.9,4.9,0.7c4.6-0.4,6-1.1,5.9-6c0-5.1,0-10.2-0.3-15.3c-0.2-3.4-0.6-6.8-1-10.1L312.1,390.9L312.1,390.9z"/>
					</g>
				</g>
			</g>
		</g>
		<g>
			<g>
				<g>
					<path class="st12" d="M416.8,365c0,0-0.9,10.1-1.5,11.1c-0.7,1-4.5,5.6-5,7.1c-0.5,1.5,0.4,10-3,15.8
						c-3.3,5.8-8.7,11.5-11.1,12.8s-2.8,8.3-14.1,1.7c-11.3-6.6-21.6-20.5-14.1-35.8c7.4-15.3,10.4-21,20.7-23.4
						C398.8,352,412.3,351.1,416.8,365z"/>
					<g>
						<path d="M403.2,371.5c0.5,1.6,1.3,3.1,2.2,4.5c1,1.5,2.5,2.3,3.5,3.7c2.2,2.9,2.5,6.8,1.9,10.3c0,0-1.9-0.4-1.9-0.4
							c1.1-3.9,0.8-8.4-2.3-11.2C404.7,376.5,403.8,373.9,403.2,371.5L403.2,371.5z"/>
					</g>
					<path class="st0" d="M383.8,405.3c0.2-0.3,3-4.7,6.6-6c3.6-1.2,5.5-1.7,5.9-2.7c0,0-1.3,2.2-2.5,2.1c-1.2-0.1,2.2,0,3.1,2.3
						c0.8,2.3,2,6.3,0.2,10.4s-6.7,5.8-7.5,5.4C388.9,416.2,378.8,411.7,383.8,405.3z"/>
					<g>
						<path d="M381,367.7c1.1,0,2.6,0.7,4.8,2.1c0,0,3.1,4.9,2.1,9.5c-1.1,4.7-4.2,11.6-5.5,13.4c-0.9,1.2-6,2.6-9.2,2.6
							c-1.4,0-2.4-0.2-2.7-0.8c-0.9-2-4.6-12.4,2.4-19.4C377.6,370.3,378.7,367.7,381,367.7 M381,366.2L381,366.2
							c-2.2,0-3.5,1.5-5.5,3.8c-0.9,1.1-2.1,2.4-3.6,3.9c-8.2,8.2-2.9,20.5-2.7,21c0.8,1.7,3.2,1.7,4,1.7c2.8,0,8.9-1.2,10.4-3.2
							c1.5-2,4.7-9.2,5.8-13.9c1.2-5.2-2.2-10.4-2.3-10.6c-0.1-0.2-0.3-0.3-0.5-0.5C384.3,367.1,382.6,366.2,381,366.2L381,366.2z"
							/>
					</g>
					<path class="st2" d="M404.6,353.5c0,0-11.5,7.5-10.3,10.8c1.2,3.3-2.3,11.3-4.1,12.3c-1.8,1-7.1,6.1-3.4,14.4
						c3.6,8.3,4.1,21,3.4,23.3c-0.6,2.3-19.9-5.7-22.4-15.8c-2.4-10-0.3-25.9,8.9-37.8C386,348.9,404.6,353.5,404.6,353.5z"/>
				</g>
				<g>
					<path class="st8" d="M366.1,269c0,0,9.9,7.7,9.9,10c0,2.2,0.8-1.6,0.8-1.6s0.2,3.1,4,6.7s8.7,8.8,8.7,9.6c0,0.8,3.1-1.2,4.1,0
						c1,1.2,10.6,15.2,14.4,16.7s4.7,10.5,7.2,12.9c2.5,2.3,16.7,11.2,14,20.7c-2.7,9.5-11.2,13.8-11.5,16.7c-0.2,2.8-0.5,7.7-0.7,9
						c-0.2,1.3-3-12.5-15-14.1s-19.3,3-19.3,3s-24.9-25.1-23.5-30.1C360.6,323.5,354.9,287.2,366.1,269z"/>
					<path class="st13" d="M362.9,285.4c0,0,4.6,20.2,9.4,21.2c4.9,1,6.4,1.4,7.5,4c1.1,2.6-1.2,3.7,2.3,9c3.5,5.3,6.8,6.3,7,7.8
						c0.3,1.5-2,5-5,6.9c-3,1.9-1.7,1.9,2.6,0.9c4.4-1,7.9-3.8,14.7-3.7c6.7,0.1-7.5-0.5-11.8,10.2c-2.6,6.4,1.9,16.1-2.7,14.3
						C371.9,350,349.8,334.2,362.9,285.4z"/>
					<path class="st3" d="M373.7,311.4c0,0-0.5,8.5-1.8,11.9c-1.3,3.3-3.1,7.7,0,9.9s4.1,5.7,4.1,5.7"/>
					<g>
						<path class="st14" d="M417,370.4c-0.3,0-0.6-0.2-0.7-0.4c-4.8-11.3-8.7-12.2-14.5-13.4c-0.7-0.1-1.4-0.3-2.2-0.5
							c-0.9-0.2-1.9-0.3-3-0.3c-6.3,0-13.4,3.5-13.5,3.5c-0.1,0-0.2,0.1-0.3,0.1c-0.2,0-0.4-0.1-0.5-0.2l-2.5-2.6
							c-0.2-0.2-0.2-0.4-0.2-0.7c0.1-0.2,0.2-0.4,0.5-0.5c7.1-2.7,13.5-4.1,19-4.1c15.6,0,19.3,11.1,19.3,11.2c0,0.1,0,0.2,0,0.3
							l-0.6,7c0,0.3-0.3,0.6-0.6,0.7C417.1,370.4,417.1,370.4,417,370.4z"/>
						<path d="M399,352c15.3,0,18.6,10.7,18.6,10.7l-0.6,7c-5.6-13.1-10.2-12.7-17.2-14.3c-1-0.2-2.1-0.3-3.2-0.3
							c-6.5,0-13.8,3.6-13.8,3.6l-2.5-2.6C387.9,353.1,394.1,352,399,352 M399,350.5c-5.6,0-12.1,1.4-19.3,4.1
							c-0.5,0.2-0.8,0.6-0.9,1.1c-0.1,0.5,0,1,0.4,1.3l2.5,2.6c0.3,0.3,0.7,0.4,1,0.4c0.2,0,0.4,0,0.6-0.1c0.1,0,7.1-3.4,13.2-3.4
							c1,0,2,0.1,2.9,0.3c0.8,0.2,1.5,0.3,2.2,0.5c5.6,1.2,9.4,2,14,13c0.2,0.5,0.8,0.9,1.3,0.9c0.1,0,0.2,0,0.2,0
							c0.7-0.1,1.2-0.7,1.2-1.3l0.6-7c0-0.2,0-0.4-0.1-0.6C418.9,361.7,415.2,350.5,399,350.5L399,350.5z"/>
					</g>
					<path class="st5" d="M397.6,297.6c0,0-1.4,3.8-4,5.6c0,0,4.1,5.4,7.2,8c2.1,1.8,2.9,3.5,2.9,3.5s3.3-4.1,3.6-6.2
						c0.2-1.7-2.3-4.5-3-4.8C403.6,303.3,399.1,296.1,397.6,297.6z"/>
					<path class="st5" d="M404.7,306.4c0,0-0.9,1.1-1.2,1.3c0,0-0.8,1.1-1.1,1.6c-0.2,0.3-0.4,0.6-0.4,0.6s0.8-0.8,1.1-1.1
						c0.3-0.3,0.6-0.8,0.7-0.9C403.8,307.8,405,306.2,404.7,306.4z"/>
					<path class="st5" d="M403.1,304.7c0,0-0.9,1.1-1.2,1.3c0,0-0.8,1.1-1.1,1.6c-0.2,0.3-0.4,0.6-0.4,0.6s0.8-0.8,1.1-1.1
						c0.3-0.3,0.6-0.8,0.7-0.9S403.4,304.5,403.1,304.7z"/>
					<path class="st5" d="M401.5,302.4c0,0-0.9,1.1-1.2,1.3c0,0-0.8,1.1-1.1,1.6c-0.2,0.3-0.4,0.6-0.4,0.6s0.8-0.8,1.1-1.1
						c0.3-0.3,0.6-0.8,0.7-0.9S401.8,302.2,401.5,302.4z"/>
					<path class="st5" d="M399.7,300.7c0,0-0.9,1.1-1.2,1.3c0,0-0.8,1.1-1.1,1.6c-0.2,0.3-0.4,0.6-0.4,0.6s0.8-0.8,1.1-1.1
						c0.3-0.3,0.6-0.8,0.7-0.9S400,300.4,399.7,300.7z"/>
					<g>
						<polygon points="389.8,293 386.7,298.8 388.4,292.5 389.8,293 						"/>
					</g>
					<path class="st3" d="M373.7,275.6c0,0,2.5,3.1,1.2,10.4c-1.3,7.3-2.6,14-3,17.6c-0.4,3.7,0.4,7.7,0.4,11.1
						c0,3.4-0.6,9.9-1.7,12.6"/>
					<path class="st3" d="M371.9,274.4c0,0,1.6,2.2,1,8.6c-0.6,6.3-3.8,15.6-3.5,23.8c0.3,8.2,1.1,9.7-0.1,14.4
						c-1.3,5.2-3.1,9.6,0.8,12.9"/>
					<g>
						<g>
							<path d="M419.3,352.2c-3.5-4.4-8.9-7-14.5-7.4c-2.8-0.2-5.6,0-8.4,0.4c-2.8,0.4-5.6,0.9-8.5,1.3c6.7-2.4,14.2-4.4,21.3-2.4
								C413.4,345.5,417.4,348.2,419.3,352.2L419.3,352.2z"/>
						</g>
						<g>
							<path d="M405.3,330.9c4.4-0.8,9,0.2,13,2c3,1.2,6.5,2.9,7.8,6.2c0.4,1.1,0.6,2.2,0.6,3.3c-0.3-1.1-0.7-2.1-1.3-3
								c-1.7-2.8-4.8-3.9-7.7-5.1C413.7,332.5,409.7,331.4,405.3,330.9L405.3,330.9z"/>
						</g>
						<g>
							<path d="M394.3,344c3.5-4.2,9.7-6,15-4.8C404,340.1,399,341.5,394.3,344L394.3,344z"/>
						</g>
						<g>
							<path d="M423.1,339.2c-11-2.9-22.7-4.3-33.5,0C399.5,332.9,412.8,334.4,423.1,339.2L423.1,339.2z"/>
						</g>
						<g>
							<path d="M414.4,338.3c-5.3-0.2-10.3-0.5-15.5,0C403.7,335.8,409.7,336.1,414.4,338.3L414.4,338.3z"/>
						</g>
						<g>
							<path d="M377.9,318.9c-0.9,5.1-0.7,10,2.4,14.3C375.4,330.3,374.9,323.2,377.9,318.9L377.9,318.9z"/>
						</g>
					</g>
					<g>
						<path d="M416.8,324.5c-3.5-2-6.7-3.7-10.5-5.1C410.4,318.7,414.8,321,416.8,324.5L416.8,324.5z"/>
					</g>
					<g>
						<path d="M389.6,326.6c-2.6,3.9-5.5,7.3-7.5,11.6C382,333.3,385.6,329,389.6,326.6L389.6,326.6z"/>
					</g>
				</g>
			</g>
			<g>
				<g>
					<path class="st12" d="M193.9,365c0,0,0.9,10.1,1.5,11.1c0.7,1,4.5,5.6,5,7.1c0.5,1.5-0.4,10,3,15.8c3.3,5.8,8.7,11.5,11.1,12.8
						c2.5,1.3,2.8,8.3,14.1,1.7c11.3-6.6,21.6-20.5,14.1-35.8c-7.4-15.3-10.4-21-20.7-23.4C211.9,352,198.4,351.1,193.9,365z"/>
					<g>
						<path d="M207.6,371.5c-0.4,1.6-1,3.3-1.8,4.8c-0.8,1.5-2.2,2.5-3.1,4c-1.8,2.8-1.6,6.2-0.8,9.3c0,0-1.9,0.4-1.9,0.4
							c-0.5-3.5-0.3-7.4,1.9-10.3c1-1.4,2.5-2.3,3.5-3.7C206.3,374.6,207,373.1,207.6,371.5L207.6,371.5z"/>
					</g>
					<path class="st0" d="M226.9,405.3c-0.2-0.3-3-4.7-6.6-6s-5.5-1.7-5.9-2.7c0,0,1.3,2.2,2.5,2.1c1.2-0.1-2.2,0-3.1,2.3
						c-0.8,2.3-2,6.3-0.2,10.4c1.8,4.1,6.7,5.8,7.5,5.4C221.9,416.2,231.9,411.7,226.9,405.3z"/>
					<g>
						<path d="M229.7,367.7c2.3,0,3.4,2.6,8.1,7.3c7,7,3.2,17.4,2.4,19.4c-0.3,0.6-1.3,0.8-2.7,0.8c-3.2,0-8.3-1.3-9.2-2.6
							c-1.3-1.7-4.5-8.7-5.5-13.4c-1.1-4.7,2.1-9.5,2.1-9.5C227.2,368.3,228.6,367.7,229.7,367.7 M229.7,366.2
							c-1.6,0-3.3,0.9-5.6,2.3c-0.2,0.1-0.3,0.3-0.5,0.5c-0.1,0.2-3.5,5.5-2.3,10.6c1.1,4.8,4.3,11.9,5.8,13.9
							c1.4,2,7.5,3.2,10.4,3.2c0.8,0,3.3,0,4-1.7c0.2-0.5,5.5-12.8-2.7-21c-1.5-1.5-2.7-2.8-3.6-3.9
							C233.2,367.7,231.9,366.2,229.7,366.2L229.7,366.2z"/>
					</g>
					<path class="st2" d="M206.2,353.5c0,0,11.5,7.5,10.3,10.8c-1.2,3.3,2.3,11.3,4.1,12.3s7.1,6.1,3.4,14.4
						c-3.6,8.3-4.1,21-3.4,23.3c0.6,2.3,19.9-5.7,22.4-15.8c2.4-10,0.3-25.9-8.9-37.8C224.8,348.9,206.2,353.5,206.2,353.5z"/>
				</g>
				<g>
					<path class="st8" d="M244.6,269c0,0-9.9,7.7-9.9,10c0,2.2-0.8-1.6-0.8-1.6s-0.2,3.1-4,6.7s-8.7,8.8-8.7,9.6
						c0,0.8-3.1-1.2-4.1,0c-1,1.2-10.6,15.2-14.4,16.7s-4.7,10.5-7.2,12.9c-2.5,2.3-16.7,11.2-14,20.7s11.2,13.8,11.5,16.7
						s0.5,7.7,0.7,9c0.2,1.3,3-12.5,15-14.1s19.3,3,19.3,3s24.9-25.1,23.5-30.1C250.1,323.5,255.8,287.2,244.6,269z"/>
					<path class="st13" d="M247.9,285.4c0,0-4.6,20.2-9.4,21.2c-4.9,1-6.4,1.4-7.5,4c-1.1,2.6,1.2,3.7-2.3,9c-3.5,5.3-6.8,6.3-7,7.8
						s2,5,5,6.9c3,1.9,1.7,1.9-2.6,0.9c-4.4-1-7.9-3.8-14.7-3.7c-6.7,0.1,7.5-0.5,11.8,10.2c2.6,6.4-1.9,16.1,2.7,14.3
						C238.8,350,260.9,334.2,247.9,285.4z"/>
					<path class="st3" d="M237,311.4c0,0,0.5,8.5,1.8,11.9c1.3,3.3,3.1,7.7,0,9.9c-3.1,2.2-4.1,5.7-4.1,5.7"/>
					<g>
						<path class="st14" d="M193.7,370.4c0,0-0.1,0-0.1,0c-0.3-0.1-0.6-0.3-0.6-0.7l-0.6-7c0-0.1,0-0.2,0-0.3
							c0-0.1,3.7-11.2,19.3-11.2c5.5,0,11.9,1.4,19,4.1c0.2,0.1,0.4,0.3,0.5,0.5c0.1,0.2,0,0.5-0.2,0.7l-2.5,2.6
							c-0.1,0.1-0.3,0.2-0.5,0.2c-0.1,0-0.2,0-0.3-0.1c-0.1,0-7.2-3.5-13.5-3.5c-1.1,0-2.1,0.1-3,0.3c-0.8,0.2-1.5,0.3-2.2,0.5
							c-5.9,1.2-9.7,2-14.5,13.4C194.3,370.2,194,370.4,193.7,370.4z"/>
						<path d="M211.7,352c4.9,0,11.1,1.1,18.8,4l-2.5,2.6c0,0-7.3-3.6-13.8-3.6c-1.1,0-2.2,0.1-3.2,0.3c-7,1.6-11.7,1.2-17.2,14.3
							l-0.6-7C193.1,362.6,196.5,352,211.7,352 M211.7,350.5L211.7,350.5c-16.2,0-19.9,11.2-20,11.7c-0.1,0.2-0.1,0.4-0.1,0.6l0.6,7
							c0.1,0.7,0.6,1.2,1.2,1.3c0.1,0,0.2,0,0.2,0c0.6,0,1.1-0.3,1.3-0.9c4.7-11,8.4-11.8,14-13c0.7-0.1,1.4-0.3,2.2-0.5
							c0.9-0.2,1.8-0.3,2.9-0.3c6.1,0,13.1,3.4,13.2,3.4c0.2,0.1,0.4,0.1,0.6,0.1c0.4,0,0.8-0.2,1-0.4l2.5-2.6
							c0.3-0.4,0.5-0.9,0.4-1.3c-0.1-0.5-0.4-0.9-0.9-1.1C223.8,351.9,217.3,350.5,211.7,350.5L211.7,350.5z"/>
					</g>
					<path class="st5" d="M213.1,297.6c0,0,1.4,3.8,4,5.6c0,0-4.1,5.4-7.2,8c-2.1,1.8-2.9,3.5-2.9,3.5s-3.3-4.1-3.6-6.2
						c-0.2-1.7,2.3-4.5,3-4.8C207.1,303.3,211.7,296.1,213.1,297.6z"/>
					<path class="st5" d="M206,306.4c0,0,0.9,1.1,1.2,1.3c0,0,0.8,1.1,1.1,1.6c0.2,0.3,0.4,0.6,0.4,0.6s-0.8-0.8-1.1-1.1
						c-0.3-0.3-0.6-0.8-0.7-0.9C206.9,307.8,205.7,306.2,206,306.4z"/>
					<path class="st5" d="M207.6,304.7c0,0,0.9,1.1,1.2,1.3c0,0,0.8,1.1,1.1,1.6c0.2,0.3,0.4,0.6,0.4,0.6s-0.8-0.8-1.1-1.1
						c-0.3-0.3-0.6-0.8-0.7-0.9C208.5,306.1,207.3,304.5,207.6,304.7z"/>
					<path class="st5" d="M209.2,302.4c0,0,0.9,1.1,1.2,1.3c0,0,0.8,1.1,1.1,1.6c0.2,0.3,0.4,0.6,0.4,0.6s-0.8-0.8-1.1-1.1
						c-0.3-0.3-0.6-0.8-0.7-0.9S208.9,302.2,209.2,302.4z"/>
					<path class="st5" d="M211,300.7c0,0,0.9,1.1,1.2,1.3c0,0,0.8,1.1,1.1,1.6c0.2,0.3,0.4,0.6,0.4,0.6s-0.8-0.8-1.1-1.1
						c-0.3-0.3-0.6-0.8-0.7-0.9C212,302,210.7,300.4,211,300.7z"/>
					<g>
						<polygon points="222.3,292.5 224,298.8 221,293 222.3,292.5 						"/>
					</g>
					<path class="st3" d="M237,275.6c0,0-2.5,3.1-1.2,10.4c1.3,7.3,2.6,14,3,17.6c0.4,3.7-0.4,7.7-0.4,11.1c0,3.4,0.6,9.9,1.7,12.6"
						/>
					<path class="st3" d="M238.8,274.4c0,0-1.6,2.2-1,8.6c0.6,6.3,3.8,15.6,3.5,23.8s-1.1,9.7,0.1,14.4c1.3,5.2,3.1,9.6-0.8,12.9"/>
					<g>
						<g>
							<path d="M191.5,352.2c1.9-4,5.9-6.7,10-8.1c7.1-2.1,14.6,0,21.3,2.4c-2.9-0.4-5.7-1-8.5-1.3c-2.8-0.4-5.6-0.6-8.4-0.4
								C200.4,345.2,195,347.8,191.5,352.2L191.5,352.2z"/>
						</g>
						<g>
							<path d="M205.4,330.9c-4.4,0.4-8.4,1.5-12.4,3.3c-2.9,1.2-6,2.4-7.7,5.1c-0.6,0.9-0.9,1.9-1.3,3c0-1.1,0.2-2.2,0.6-3.3
								c1.3-3.3,4.8-4.9,7.8-6.2C196.5,331.2,201,330.2,205.4,330.9L205.4,330.9z"/>
						</g>
						<g>
							<path d="M216.4,344c-4.7-2.5-9.7-3.9-15-4.8C206.7,338,212.9,339.8,216.4,344L216.4,344z"/>
						</g>
						<g>
							<path d="M187.6,339.2c10.3-4.9,23.5-6.3,33.5,0C210.4,334.9,198.7,336.4,187.6,339.2L187.6,339.2z"/>
						</g>
						<g>
							<path d="M196.3,338.3c4.8-2.2,10.8-2.5,15.5,0C206.6,337.8,201.6,338.1,196.3,338.3L196.3,338.3z"/>
						</g>
						<g>
							<path d="M232.8,318.9c3,4.3,2.5,11.4-2.4,14.3C233.6,328.9,233.7,324,232.8,318.9L232.8,318.9z"/>
						</g>
					</g>
					<g>
						<path d="M193.9,324.5c2-3.5,6.4-5.8,10.5-5.1C200.6,320.8,197.4,322.5,193.9,324.5L193.9,324.5z"/>
					</g>
					<g>
						<path d="M221.2,326.6c4,2.4,7.6,6.7,7.5,11.6C226.7,333.9,223.8,330.5,221.2,326.6L221.2,326.6z"/>
					</g>
				</g>
			</g>
			<g>
				<path class="st8" d="M248.4,334.5c0,0-4.9,2.8-2,12.2c2.9,9.3,1.9,20.1,22.4,23.4c20.4,3.4,80.2,7.1,89.1-0.4
					c8.9-7.5,21.1-17.1,14.1-27.6c-7-10.5-10.5-2.7-14.3-15.8s-3.6-55.8-1.4-59.6c2.2-3.8-74-0.8-87.7,0.9
					C254.8,269.3,249.6,319.5,248.4,334.5z"/>
				<g>
					<path class="st15" d="M325,313.1c0,0,5.7-4.3,9.9-5c4.2-0.7,10.8-2,17-4.6c6.2-2.5,5.4,0.5,5.4,0.5s4.8,13.5,2.7,15.5
						c-2.2,2.1-7,3.9-13.4,5.9s-12.5,3.1-14.5,3s-5.5-0.8-6.3-6.8S325,313.1,325,313.1z"/>
					<path class="st3" d="M325.8,322.2c-0.3-1.8-0.8-9.1-0.8-9.1s3.9-3.8,12.4-5.5c8.5-1.7,12.4-4.3,14.5-4.1
						c2.1,0.2,4.3-2.6,5.4,0.5c1.1,3.1,3.1,12,3.1,12c0.2,1.3,7,11.1,5.2,17.6c-1.8,6.5-16.2,9.3-16.2,9.3s-14.5,3.2-18.9-1.3
						c-4.5-4.6-3.5-8.1-4-16.6C326.6,324.9,326,323.2,325.8,322.2z"/>
					<path class="st5" d="M351.6,335.7c0,1.5-0.7,2.6-2.2,2.6c-1.5,0-2.8-0.8-2.8-2.4c0-1.5,1.2-2.8,2.8-2.8
						C350.8,333.2,351.6,334.2,351.6,335.7z"/>
				</g>
				<g>
					<path class="st15" d="M286.4,313.3c0,0-5.5-3.9-9.3-4.4c-3.8-0.5-10-1.4-15.8-3.6c-5.8-2.1-4.9,0.8-4.9,0.8s-3.6,13.5-1.5,15.4
						s6.6,3.5,12.6,5.1c5.9,1.6,11.6,2.4,13.4,2.2s5-1.1,5.4-7C286.6,316,286.4,313.3,286.4,313.3z"/>
					<path class="st3" d="M286.1,322.3c0.2-1.8,0.2-9,0.2-9s-3.8-3.5-11.6-4.7c-7.9-1.2-11.5-3.5-13.4-3.2c-1.9,0.3-4.1-2.3-4.9,0.8
						c-0.8,3.1-2.2,12-2.2,12c-0.1,1.3-4.6,10.8-2.6,17.1c2,6.3,14.1,8.9,14.1,8.9s13.4,2.4,17.2-2.3c3.8-4.7,2.7-8.2,2.7-16.6
						C285.6,325.1,286,323.3,286.1,322.3z"/>
					<path class="st5" d="M261.9,335.5c0.1,1.3,0.7,2.2,1.9,2.1c1.2-0.1,2.1-0.8,2.1-2.1s-1.1-2.3-2.3-2.2
						C262.4,333.3,261.9,334.2,261.9,335.5z"/>
				</g>
				<g>
					<path class="st16" d="M368.8,271.3c0,0-1.8,1.7-1.6,7.4c0.2,5.6-1.1,17.7-0.8,27.9c0.2,10.2-2.9,17.2-2.4,18.7
						c0.5,1.5,3.4,7.5,7.7,10.1c0,0,1.9,11.2-7.8,3.6s-13.7-16.6-14.7-22.1c-1-5.5-1.2-16.1-2-20.8c-0.8-4.7-1.8-15.6,1.8-20.3
						C352.8,271.1,370.4,265.9,368.8,271.3z"/>
					<g>
						<path d="M364.6,271.4c-1.8,2.5-2.5,5.5-2.2,8.5c0.3,1.8,0.7,3.6,0.9,5.4c0.6,4.9,0.9,9.8,0.1,14.8c-0.3,2.4-1.3,4.7-1.5,7.1
							c-0.4,4.8,0.4,9.7,1.5,14.3c0.5,2.4,1,4.8,2.1,7c-0.8-1-1.3-2.1-1.8-3.2c-2.4-5.7-3.3-12-2.9-18.2c0.2-2.5,1.2-4.7,1.5-7.2
							c0.7-4.8,0.5-9.7-0.1-14.5c-0.2-2.5-1.1-4.8-1-7.3C361.7,275.6,362.9,273.2,364.6,271.4L364.6,271.4z"/>
					</g>
					<g>
						<path d="M358.1,271.4c-3.5,9.7-0.1,20.4,1.9,30.1c0.8,3.8,1.5,7.6,1.8,11.5c0.1,3.8,0.9,7.5,2.3,11.1c0.8,2.4,1.8,4.8,3.1,7
							c-0.9-1-1.6-2.1-2.2-3.2c-2.7-4.4-4.1-9.6-4.2-14.8c-0.2-3.8-1-7.6-1.8-11.3C357.3,292,352.9,280.7,358.1,271.4L358.1,271.4z"
							/>
					</g>
					<g>
						<path d="M353.5,274.4c-3.6,8.3-1.4,18.4-0.8,27.1c0.8,9,1.2,18.5,6.4,26.2c3.3,4.8,6.9,10.8,13.2,11.5
							c-3.2,0.1-6.1-1.5-8.4-3.6c-10.1-10.6-11.1-20.1-12.2-34c0,0-0.8-9.1-0.8-9.1c-0.3-3-0.7-6.1-0.3-9.3
							C351.1,280.1,351.9,277.1,353.5,274.4L353.5,274.4z"/>
					</g>
					<g>
						<path d="M356.2,300.9c2.1,2.9,2.7,6.6,2.4,10.1c-0.2,3.4-0.4,6.6,1.2,9.7c2.3,4.4,5,8.8,8.7,12.3c1.1,1.3,2.2,2.6,3.3,3.9
							c-1.5-0.9-3-1.8-4.4-2.9c-2.5-2.4-4.6-5.3-6.4-8.2c-1.8-2.9-3.8-6.1-4-9.7C357.1,310.9,357.5,306,356.2,300.9L356.2,300.9z"/>
					</g>
					<g>
						<path d="M353.8,313.1c0.5,2,1.3,3.7,1.9,5.6c0.1,0.5,0.5,1.4,0.7,1.8c2.5,6,7.2,10.9,12.6,14.5c3.6,3.2,3.8,3.1-0.8,1.2
							c-5.6-3.8-10.5-8.9-13.1-15.2c-0.2-0.5-0.6-1.4-0.7-1.9C353.5,317.3,353.4,315.1,353.8,313.1L353.8,313.1z"/>
					</g>
				</g>
				<g>
					<path class="st16" d="M239.9,274.9c0,0,1.8,1.7,1.9,7.3c0.1,5.6,1.8,17.6,2,27.9s3.6,17.1,3.2,18.6c-0.4,1.5-3,7.6-7.3,10.4
						c0,0-1.4,11.3,7.9,3.2c9.4-8.1,13-17.2,13.7-22.7s0.5-16.2,1.1-20.8c0.6-4.7,1.2-15.7-2.7-20.2S238.1,269.6,239.9,274.9z"/>
					<g>
						<path d="M244.1,274.8c1.8,1.7,3.1,4,3.5,6.5c0.2,2.5-0.5,4.9-0.7,7.4c-0.4,4.8-0.4,9.7,0.5,14.5c0.4,2.4,1.5,4.7,1.8,7.1
							c0.7,6.1,0,12.5-2.1,18.3c-0.4,1.1-0.9,2.3-1.6,3.3c1-2.2,1.4-4.7,1.8-7c1-4.7,1.6-9.6,0.9-14.4c-0.3-2.4-1.4-4.7-1.8-7.1
							c-0.9-4.9-0.9-9.9-0.5-14.7c0.1-2.4,0.9-4.8,0.7-7.2C246.5,279.1,245.6,276.8,244.1,274.8L244.1,274.8z"/>
					</g>
					<g>
						<path d="M250.6,274.6c5.6,9.1,1.7,20.5,0.4,30.3c-0.6,3.8-1.2,7.6-1.3,11.4c0.1,5.2-1.1,10.4-3.6,15c-0.6,1.1-1.3,2.3-2.1,3.3
							c1.3-2.2,2.1-4.7,2.8-7.1c1.3-3.6,2-7.3,1.9-11.1c0.1-3.9,0.7-7.7,1.3-11.5C251.6,294.9,254.5,284.1,250.6,274.6L250.6,274.6z
							"/>
					</g>
					<g>
						<path d="M255.4,277.3c1.6,2.6,2.6,5.6,3.2,8.6c0.5,3.1,0.2,6.2,0.1,9.3l-0.4,9.2c-0.4,13.9-1.1,23.5-10.7,34.5
							c-2.2,2.2-5,4-8.2,4c6.3-1,9.6-7.2,12.7-12.1c4.9-7.9,4.8-17.5,5.3-26.5C257.5,295.6,259.3,285.5,255.4,277.3L255.4,277.3z"/>
					</g>
					<g>
						<path d="M253.7,303.9c-1,5.2-0.4,10-0.3,15.2c-0.1,3.6-1.9,6.8-3.6,9.9c-1.6,3-3.6,6-6,8.5c-1.4,1.1-2.8,2.1-4.2,3
							c1.1-1.4,2.2-2.7,3.2-4.1c3.5-3.6,6-8.2,8.1-12.7c1.5-3.1,1.1-6.4,0.8-9.7C251.3,310.6,251.8,306.9,253.7,303.9L253.7,303.9z"
							/>
					</g>
					<g>
						<path d="M256.7,316c0.4,2,0.5,4.1-0.2,6.1c-0.1,0.5-0.5,1.5-0.6,1.9c-2.4,6.4-7,11.7-12.5,15.7c-4.4,2-4.4,2.2-0.9-1.2
							c5.2-3.8,9.7-8.9,12-15.1c0.2-0.4,0.5-1.4,0.6-1.8C255.5,319.8,256.3,318,256.7,316L256.7,316z"/>
					</g>
				</g>
				<polygon class="st17" points="261.8,244.2 282.4,291 303.4,308.9 306.7,319 324.7,295.9 350.6,266.6 367.2,230.9 				"/>
				<g>
					<path class="st18" d="M242.9,248.6c0,0-14.3,11.7-10.6,21.4c3.7,9.7,18.4,16.4,33.9,18.7c0,0-3.2,1,1.7,3c5,2,11.3,3.2,18,10.7
						c6.7,7.5,16,18.4,17.4,20.2c1.5,1.7,2.3-1.5,0-13.7c-2.3-12.2-7.3-20.4-9-21.2c-1.7-0.7-7.8-2-9.4-4c-1.6-2-7.1-9.7-8.6-14.2
						C275,265,262,238.8,242.9,248.6z"/>
					<path class="st8" d="M248.5,246.4c0,0-13.1,6.6-4.4,17c8.7,10.3,14.5,14.8,24.2,18.3c9.7,3.5,13.7,6.7,14.2,9.2
						c0.5,2.5,2.7,6.7,7.7,11.5c5,4.7,15.4,12.7,14.7,18.7c0,0-0.2,2.9-1.4,1.5c-1.2-1.4-8.8-10.3-11.6-13.5s-7.9-11.1-15.4-14.1
						c-7.5-3-11-3.6-11.1-5c-0.1-1.5,0.9-1.3,0.9-1.3s-21.2-2.9-30.1-12.9c-8.9-10-2.6-16.7-0.4-19.4c2.2-2.8,6.1-7.2,7.2-7.7
						C244,248.1,248.5,246.4,248.5,246.4z"/>
					<path class="st15" d="M283.7,281.9c0,0,6.2,8.5,1.4,14.5"/>
					<path class="st15" d="M295.2,292.9c0,0-8.1,0.5-8.3-1.7"/>
					<path class="st15" d="M253.3,253.3c0,0,12.8,6,17,23.4"/>
					<g>
						<g>
							<path class="st19" d="M289,305.6c-0.1,0-0.3-0.1-0.3-0.1l-1.6-1.6c-0.1-0.1-0.1-0.2-0.1-0.3c0-0.1,0.1-0.3,0.1-0.3l1.6-1.6
								c0.1-0.1,0.2-0.1,0.3-0.1s0.2,0,0.3,0.1l1.6,1.6c0.2,0.2,0.2,0.5,0,0.7l-1.6,1.6C289.2,305.5,289.1,305.6,289,305.6z"/>
							<path d="M289,301.9l1.6,1.6l-1.6,1.6l-1.6-1.6L289,301.9 M289,301c-0.3,0-0.5,0.1-0.7,0.3l-1.6,1.6c-0.4,0.4-0.4,1,0,1.4
								l1.6,1.6c0.2,0.2,0.4,0.3,0.7,0.3c0.3,0,0.5-0.1,0.7-0.3l1.6-1.6c0.4-0.4,0.4-1,0-1.4l-1.6-1.6
								C289.5,301.1,289.3,301,289,301L289,301z"/>
						</g>
						<g>
							<path class="st19" d="M291.7,308.3c-0.1,0-0.3-0.1-0.3-0.1l-1.6-1.6c-0.2-0.2-0.2-0.5,0-0.7l1.6-1.6c0.1-0.1,0.2-0.1,0.3-0.1
								s0.2,0,0.3,0.1l1.6,1.6c0.1,0.1,0.1,0.2,0.1,0.3c0,0.1-0.1,0.3-0.1,0.3l-1.6,1.6C292,308.2,291.9,308.3,291.7,308.3
								L291.7,308.3z"/>
							<path d="M291.7,304.7l1.6,1.6l-1.6,1.6l-1.6-1.6L291.7,304.7 M291.7,303.7c-0.2,0-0.5,0.1-0.7,0.3l-1.6,1.6
								c-0.4,0.4-0.4,1,0,1.4l1.6,1.6c0.2,0.2,0.4,0.3,0.7,0.3s0.5-0.1,0.7-0.3l1.6-1.6c0.4-0.4,0.4-1,0-1.4l-1.6-1.6
								C292.2,303.8,292,303.7,291.7,303.7L291.7,303.7z"/>
						</g>
						<g>
							<path class="st19" d="M294.3,310.9c-0.1,0-0.2,0-0.3-0.1l-1.6-1.6c-0.1-0.1-0.1-0.2-0.1-0.3s0.1-0.3,0.1-0.3l1.7-1.7
								c0.1-0.1,0.2-0.1,0.3-0.1s0.2,0,0.3,0.1l1.6,1.6c0.1,0.1,0.1,0.2,0.1,0.3s-0.1,0.3-0.1,0.3l-1.7,1.7
								C294.6,310.8,294.4,310.9,294.3,310.9z"/>
							<path d="M294.4,307.2l1.6,1.6l-1.7,1.7l-1.6-1.6L294.4,307.2 M294.4,306.2c-0.3,0-0.5,0.1-0.7,0.3l-1.7,1.7
								c-0.4,0.4-0.4,1,0,1.4l1.6,1.6c0.2,0.2,0.4,0.3,0.7,0.3c0.3,0,0.5-0.1,0.7-0.3l1.7-1.7c0.4-0.4,0.4-1,0-1.4l-1.6-1.6
								C294.9,306.3,294.7,306.2,294.4,306.2L294.4,306.2z"/>
						</g>
						<g>
							<path class="st19" d="M298.5,315.6c-0.1,0-0.2,0-0.3-0.1l-1.2-1.2c-0.1-0.1-0.1-0.2-0.1-0.3s0.1-0.3,0.1-0.3l1.7-1.7
								c0.1-0.1,0.2-0.1,0.3-0.1l0,0c0.1,0,0.3,0.1,0.3,0.1l1.2,1.2c0.2,0.2,0.2,0.5,0,0.7l-1.7,1.7
								C298.8,315.5,298.7,315.6,298.5,315.6z"/>
							<path d="M299.1,312.2l1.2,1.2l-1.7,1.7l-1.2-1.2L299.1,312.2 M299.1,311.3c-0.2,0-0.5,0.1-0.7,0.3l-1.7,1.7
								c-0.4,0.4-0.4,1,0,1.4l1.2,1.2c0.2,0.2,0.4,0.3,0.7,0.3s0.5-0.1,0.7-0.3l1.7-1.7c0.4-0.4,0.4-1,0-1.4l-1.2-1.2
								C299.6,311.3,299.3,311.3,299.1,311.3L299.1,311.3z"/>
						</g>
						<g>
							<path class="st19" d="M296.5,313.5c-0.1,0-0.2,0-0.3-0.1l-1.2-1.2c-0.1-0.1-0.1-0.2-0.1-0.3c0-0.1,0.1-0.3,0.1-0.3l1.7-1.7
								c0.1-0.1,0.2-0.1,0.3-0.1s0.2,0,0.3,0.1l1.2,1.2c0.1,0.1,0.1,0.2,0.1,0.3s-0.1,0.3-0.1,0.3l-1.7,1.7
								C296.7,313.5,296.6,313.5,296.5,313.5z"/>
							<path d="M297,310.2l1.2,1.2l-1.7,1.7l-1.2-1.2L297,310.2 M297,309.2c-0.2,0-0.5,0.1-0.7,0.3l-1.7,1.7c-0.4,0.4-0.4,1,0,1.4
								l1.2,1.2c0.2,0.2,0.4,0.3,0.7,0.3s0.5-0.1,0.7-0.3l1.7-1.7c0.4-0.4,0.4-1,0-1.4l-1.2-1.2C297.5,309.3,297.2,309.2,297,309.2
								L297,309.2z"/>
						</g>
						<g>
							<path class="st19" d="M300.4,317.9c-0.1,0-0.2,0-0.3-0.1l-1.2-1.2c-0.2-0.2-0.2-0.5,0-0.7l1.8-1.8c0.1-0.1,0.2-0.1,0.3-0.1
								s0.2,0,0.3,0.1l1.2,1.2c0.2,0.2,0.2,0.5,0,0.7l-1.8,1.8C300.6,317.9,300.5,317.9,300.4,317.9z"/>
							<path d="M301,314.5l1.2,1.2l-1.8,1.8l-1.2-1.2L301,314.5 M301,313.5c-0.2,0-0.5,0.1-0.7,0.3l-1.8,1.8c-0.4,0.4-0.4,1,0,1.4
								l1.2,1.2c0.2,0.2,0.4,0.3,0.7,0.3s0.5-0.1,0.7-0.3l1.8-1.8c0.4-0.4,0.4-1,0-1.4l-1.2-1.2C301.5,313.6,301.2,313.5,301,313.5
								L301,313.5z"/>
						</g>
						<g>
							<path class="st19" d="M302,320c-0.1,0-0.3-0.1-0.3-0.2l-0.9-1c-0.2-0.2-0.2-0.5,0-0.7l1.7-1.6c0.1-0.1,0.2-0.1,0.3-0.1
								c0,0,0,0,0,0c0.1,0,0.3,0.1,0.3,0.2l0.8,1.1c0.1,0.2,0.1,0.5-0.1,0.7l-1.7,1.5C302.3,320,302.2,320,302,320
								C302,320,302,320,302,320z"/>
							<path d="M302.9,317l0.8,1.1l-1.7,1.5l-0.9-1L302.9,317 M302.9,316c-0.2,0-0.5,0.1-0.7,0.3l-1.7,1.6c-0.4,0.4-0.4,1-0.1,1.4
								l0.9,1c0.2,0.2,0.4,0.3,0.7,0.3c0,0,0,0,0.1,0c0.2,0,0.5-0.1,0.7-0.2l1.7-1.5c0.4-0.3,0.4-0.9,0.1-1.3l-0.8-1.1
								C303.5,316.2,303.3,316,302.9,316C303,316,302.9,316,302.9,316L302.9,316z"/>
						</g>
						<g>
							<path class="st19" d="M303.7,322.2c-0.1,0-0.3-0.1-0.4-0.2l-1.1-1.2c-0.1-0.1-0.1-0.2-0.1-0.4c0-0.1,0.1-0.2,0.2-0.3l1.7-1.5
								c0.1-0.1,0.2-0.1,0.3-0.1c0,0,0.1,0,0.1,0c0.2,0,0.3,0.2,0.3,0.3l0.6,1.6c0.1,0.2,0,0.4-0.1,0.5l-1.2,1.1
								C303.9,322.2,303.8,322.2,303.7,322.2z"/>
							<path d="M304.2,319l0.6,1.6l-1.2,1.1l-1.1-1.2L304.2,319 M304.2,318.1c-0.2,0-0.5,0.1-0.7,0.2l-1.7,1.5
								c-0.4,0.4-0.4,1-0.1,1.4l1.1,1.2c0.2,0.2,0.5,0.3,0.7,0.3c0.2,0,0.5-0.1,0.7-0.2l1.2-1.1c0.3-0.3,0.4-0.7,0.3-1.1l-0.6-1.6
								c-0.1-0.3-0.4-0.5-0.7-0.6C304.4,318.1,304.3,318.1,304.2,318.1L304.2,318.1z"/>
						</g>
					</g>
				</g>
				<g>
					<path class="st18" d="M353.8,245.3c0,0,19.1,8.6,21.4,16.8c2.3,8.1-0.2,11-4.2,12.6c-4,1.7-22.3,10.3-25.2,11.8
						C343,288,330.2,299.2,325,303c-5.2,3.8-16.4,18.8-17.5,19.3s-3,0.5-1.7-4.7c1.3-5.2,2-7.1,2.9-13c0.9-5.8,6.1-16.1,11.2-19.3
						s4.8-1.4,6.1-3.5c1.3-2,6.1-10.7,18.3-18.5C356.5,255.6,342.4,252,353.8,245.3z"/>
					<path class="st15" d="M353.8,245.3c-2.2,1.5-5.6,2.7-4.4,8.8c1.1,6-2.3,7.3-6.9,10.6c-4.6,3.3-13.3,11.2-17.3,18.3
						c-4,7.1-0.9,9.3-0.4,12.9c0.5,3.6-6.6,7.8-14,16.1c-7.5,8.3-4.9,10.2-4.9,10.2"/>
					<path class="st15" d="M323.2,290.4c0,0-4,1.2-5.4,2.6c-1.4,1.4-2.1,1.4-2.1,1.4"/>
					<path class="st8" d="M353.4,248.6c0,0,10.5,2.2,13.1,8.8c2.6,6.6-13.5,17.9-23.8,23.1c-10.3,5.2-14.6,11.5-14.6,11.5
						s-4,8.1-11.8,14.2c0,0-4,3.1-6.8,7.1c0,0-4.8,4.9-4.1,8.4c0,0,1.1,1.8,2.9-0.3c1.8-2.1,8.4-10.1,10.7-12.6
						c2.3-2.5,4.1-4.9,12.5-11c8.4-6.1,11.6-10,16.7-12.4c5.1-2.4,17.6-8,22.3-10.4s5.7-3.5,5.6-9.1s-3.9-11.5-18.2-18.6l-3.3-1.7
						C354.5,245.7,350.3,246,353.4,248.6z"/>
					<g>
						<g>
							<path class="st19" d="M320.8,305.9c-0.1,0-0.2,0-0.3-0.1l-1.6-1.4c-0.1-0.1-0.2-0.2-0.2-0.3c0-0.1,0-0.3,0.1-0.4l1.5-1.5
								c0.1-0.1,0.2-0.2,0.4-0.2c0.1,0,0.2,0,0.3,0.1l1.6,1.4c0.1,0.1,0.2,0.2,0.2,0.3c0,0.1,0,0.3-0.1,0.4l-1.5,1.5
								C321,305.9,320.9,305.9,320.8,305.9z"/>
							<path d="M320.7,302.5l1.6,1.4l-1.5,1.5l-1.6-1.4L320.7,302.5 M320.7,301.6c-0.3,0-0.5,0.1-0.7,0.3l-1.5,1.5
								c-0.2,0.2-0.3,0.5-0.3,0.7s0.1,0.5,0.3,0.7l1.6,1.4c0.2,0.2,0.4,0.2,0.6,0.2c0.3,0,0.5-0.1,0.7-0.3l1.5-1.5
								c0.2-0.2,0.3-0.5,0.3-0.7s-0.1-0.5-0.3-0.7l-1.6-1.4C321.1,301.7,320.9,301.6,320.7,301.6L320.7,301.6z"/>
						</g>
						<g>
							<path class="st19" d="M318.2,308.6c-0.1,0-0.2,0-0.3-0.1l-1.6-1.4c-0.1-0.1-0.2-0.2-0.2-0.3c0-0.1,0-0.3,0.1-0.4l1.5-1.5
								c0.1-0.1,0.2-0.2,0.4-0.2c0.1,0,0.2,0,0.3,0.1l1.6,1.4c0.1,0.1,0.2,0.2,0.2,0.3c0,0.1,0,0.3-0.1,0.4l-1.5,1.5
								C318.5,308.5,318.4,308.6,318.2,308.6z"/>
							<path d="M318.1,305.2l1.6,1.4l-1.5,1.5l-1.6-1.4L318.1,305.2 M318.1,304.2c-0.3,0-0.5,0.1-0.7,0.3L316,306
								c-0.2,0.2-0.3,0.5-0.3,0.7s0.1,0.5,0.3,0.7l1.6,1.4c0.2,0.2,0.4,0.2,0.6,0.2c0.3,0,0.5-0.1,0.7-0.3l1.5-1.5
								c0.2-0.2,0.3-0.5,0.3-0.7s-0.1-0.5-0.3-0.7l-1.6-1.4C318.6,304.3,318.3,304.2,318.1,304.2L318.1,304.2z"/>
						</g>
						<g>
							<path class="st19" d="M315.9,311.1c-0.1,0-0.2,0-0.3-0.1l-1.7-1.5c-0.1-0.1-0.2-0.2-0.2-0.3c0-0.1,0-0.3,0.1-0.4l1.5-1.5
								c0.1-0.1,0.2-0.2,0.4-0.2c0.1,0,0.2,0,0.3,0.1l1.7,1.5c0.1,0.1,0.2,0.2,0.2,0.3c0,0.1,0,0.3-0.1,0.4l-1.5,1.5
								C316.1,311,316,311.1,315.9,311.1z"/>
							<path d="M315.7,307.6l1.7,1.5l-1.5,1.5l-1.7-1.5L315.7,307.6 M315.7,306.6c-0.3,0-0.5,0.1-0.7,0.3l-1.5,1.5
								c-0.2,0.2-0.3,0.5-0.3,0.7s0.1,0.5,0.3,0.7l1.7,1.5c0.2,0.2,0.4,0.2,0.6,0.2c0.3,0,0.5-0.1,0.7-0.3l1.5-1.5
								c0.2-0.2,0.3-0.5,0.3-0.7s-0.1-0.5-0.3-0.7l-1.7-1.5C316.1,306.7,315.9,306.6,315.7,306.6L315.7,306.6z"/>
						</g>
						<g>
							<path class="st19" d="M312,315.6c-0.1,0-0.2,0-0.3-0.1l-1.7-1.5c-0.1-0.1-0.2-0.2-0.2-0.3c0-0.1,0-0.3,0.1-0.4l1.1-1.1
								c0.1-0.1,0.2-0.2,0.4-0.2c0.1,0,0.2,0,0.3,0.1l1.7,1.5c0.1,0.1,0.2,0.2,0.2,0.3c0,0.1,0,0.3-0.1,0.4l-1.1,1.1
								C312.2,315.5,312.1,315.6,312,315.6z"/>
							<path d="M311.4,312.5l1.7,1.5l-1.1,1.1l-1.7-1.5L311.4,312.5 M311.4,311.5c-0.3,0-0.5,0.1-0.7,0.3l-1.1,1.1
								c-0.2,0.2-0.3,0.5-0.3,0.7s0.1,0.5,0.3,0.7l1.7,1.5c0.2,0.2,0.4,0.2,0.6,0.2c0.3,0,0.5-0.1,0.7-0.3l1.1-1.1
								c0.2-0.2,0.3-0.5,0.3-0.7s-0.1-0.5-0.3-0.7l-1.7-1.5C311.8,311.6,311.6,311.5,311.4,311.5L311.4,311.5z"/>
						</g>
						<g>
							<path class="st19" d="M313.9,313.6c-0.1,0-0.2,0-0.3-0.1l-1.7-1.5c-0.1-0.1-0.2-0.2-0.2-0.3c0-0.1,0-0.3,0.1-0.4l1.1-1.1
								c0.1-0.1,0.2-0.2,0.4-0.2c0.1,0,0.2,0,0.3,0.1l1.7,1.5c0.1,0.1,0.2,0.2,0.2,0.3c0,0.1,0,0.3-0.1,0.4l-1.1,1.1
								C314.2,313.5,314,313.6,313.9,313.6z"/>
							<path d="M313.3,310.5l1.7,1.5l-1.1,1.1l-1.7-1.5L313.3,310.5 M313.3,309.5c-0.3,0-0.5,0.1-0.7,0.3l-1.1,1.1
								c-0.2,0.2-0.3,0.5-0.3,0.7s0.1,0.5,0.3,0.7l1.7,1.5c0.2,0.2,0.4,0.2,0.6,0.2c0.3,0,0.5-0.1,0.7-0.3l1.1-1.1
								c0.2-0.2,0.3-0.5,0.3-0.7s-0.1-0.5-0.3-0.7l-1.7-1.5C313.7,309.6,313.5,309.5,313.3,309.5L313.3,309.5z"/>
						</g>
						<g>
							<path class="st19" d="M310.3,317.8c-0.1,0-0.2,0-0.3-0.1l-1.8-1.6c-0.1-0.1-0.2-0.2-0.2-0.3c0-0.1,0-0.3,0.1-0.4l1.1-1.2
								c0.1-0.1,0.2-0.2,0.4-0.2c0.1,0,0.2,0,0.3,0.1l1.8,1.6c0.1,0.1,0.2,0.2,0.2,0.3c0,0.1,0,0.3-0.1,0.4l-1.1,1.2
								C310.5,317.8,310.4,317.8,310.3,317.8z"/>
							<path d="M309.6,314.6l1.8,1.6l-1.1,1.2l-1.8-1.6L309.6,314.6 M309.6,313.6c-0.3,0-0.5,0.1-0.7,0.3l-1.1,1.2
								c-0.2,0.2-0.3,0.5-0.3,0.7s0.1,0.5,0.3,0.7l1.8,1.6c0.2,0.2,0.4,0.2,0.6,0.2c0.3,0,0.5-0.1,0.7-0.3l1.1-1.2
								c0.2-0.2,0.3-0.5,0.3-0.7s-0.1-0.5-0.3-0.7l-1.8-1.6C310.1,313.7,309.8,313.6,309.6,313.6L309.6,313.6z"/>
						</g>
						<g>
							<path class="st19" d="M308.8,319.8c-0.1,0-0.2,0-0.3-0.1l-1.7-1.3c-0.2-0.2-0.2-0.5-0.1-0.7l0.7-1c0.1-0.1,0.2-0.2,0.3-0.2
								c0,0,0,0,0.1,0c0.1,0,0.2,0,0.3,0.1l1.7,1.4c0.1,0.1,0.2,0.2,0.2,0.3c0,0.1,0,0.3-0.1,0.4l-0.8,0.9
								C309.1,319.8,308.9,319.8,308.8,319.8z"/>
							<path d="M307.8,317l1.7,1.4l-0.8,0.9l-1.7-1.3L307.8,317 M307.8,316c0,0-0.1,0-0.1,0c-0.3,0-0.5,0.2-0.7,0.4l-0.7,1
								c-0.3,0.4-0.2,1,0.2,1.3l1.7,1.3c0.2,0.1,0.4,0.2,0.6,0.2c0.3,0,0.5-0.1,0.7-0.3l0.8-0.9c0.2-0.2,0.3-0.5,0.2-0.7
								c0-0.3-0.2-0.5-0.4-0.7l-1.7-1.4C308.3,316.1,308.1,316,307.8,316L307.8,316z"/>
						</g>
						<g>
							<path class="st19" d="M307.3,321.9c-0.1,0-0.2,0-0.3-0.1l-1.2-0.9c-0.2-0.1-0.2-0.3-0.2-0.5l0.5-1.5c0.1-0.2,0.2-0.3,0.3-0.3
								c0,0,0.1,0,0.1,0c0.1,0,0.2,0,0.3,0.1l1.7,1.3c0.1,0.1,0.2,0.2,0.2,0.3c0,0.1,0,0.3-0.1,0.4l-1,1.1
								C307.6,321.8,307.5,321.9,307.3,321.9z"/>
							<path d="M306.7,319l1.7,1.3l-1,1.2l-1.2-0.9L306.7,319 M306.7,318c-0.1,0-0.2,0-0.3,0c-0.3,0.1-0.5,0.3-0.6,0.6l-0.5,1.5
								c-0.1,0.4,0,0.8,0.3,1.1l1.2,0.9c0.2,0.1,0.4,0.2,0.6,0.2c0.3,0,0.5-0.1,0.7-0.3l1-1.2c0.2-0.2,0.3-0.5,0.2-0.7
								c0-0.3-0.2-0.5-0.4-0.7l-1.7-1.3C307.1,318.1,306.9,318,306.7,318L306.7,318z"/>
						</g>
					</g>
				</g>
				<g>
					<g>
						<path class="st19" d="M304.1,324.9c-0.1,0-0.3-0.1-0.3-0.2c-0.1-0.1-0.1-0.2-0.1-0.4l0.1-1.4c0-0.3,0.2-0.5,0.5-0.5
							c0,0,2.2,0.1,2.2,0.1c0.1,0,0.3,0.1,0.3,0.2c0.1,0.1,0.1,0.2,0.1,0.4l-0.1,1.4c0,0.3-0.2,0.5-0.5,0.5
							C306.4,325,304.1,324.9,304.1,324.9z"/>
						<path d="M304.2,323l2.2,0.1l-0.1,1.4l-2.2-0.1L304.2,323 M304.2,322c-0.2,0-0.5,0.1-0.7,0.3c-0.2,0.2-0.3,0.4-0.3,0.7
							l-0.1,1.4c0,0.3,0.1,0.5,0.3,0.7s0.4,0.3,0.7,0.3l2.2,0.1c0,0,0,0,0,0c0.5,0,1-0.4,1-0.9l0.1-1.4c0-0.5-0.4-1-0.9-1L304.2,322
							C304.2,322,304.2,322,304.2,322L304.2,322z"/>
					</g>
					<g>
						<path class="st19" d="M304,327.7c-0.3,0-0.5-0.2-0.5-0.5l0-1.3c0-0.3,0.2-0.5,0.5-0.5c0,0,2.2,0.1,2.2,0.1
							c0.1,0,0.3,0.1,0.3,0.2c0.1,0.1,0.1,0.2,0.1,0.4l0,1.3c0,0.1-0.1,0.3-0.2,0.3c-0.1,0.1-0.2,0.1-0.3,0.1
							C306.3,327.8,304,327.7,304,327.7z"/>
						<path d="M304.1,325.9l2.2,0.1l0,1.3l-2.2-0.1L304.1,325.9 M304.1,324.9c-0.2,0-0.5,0.1-0.7,0.3c-0.2,0.2-0.3,0.4-0.3,0.7
							l0,1.3c0,0.5,0.4,1,0.9,1l2.2,0.1c0,0,0,0,0,0c0.2,0,0.5-0.1,0.7-0.3c0.2-0.2,0.3-0.4,0.3-0.7l0-1.3c0-0.5-0.4-1-0.9-1
							L304.1,324.9C304.1,324.9,304.1,324.9,304.1,324.9L304.1,324.9z"/>
					</g>
					<g>
						<path class="st19" d="M304.1,330.6c-0.1,0-0.3-0.1-0.3-0.1c-0.1-0.1-0.1-0.2-0.1-0.3v-1.4c0-0.3,0.2-0.5,0.5-0.5l2.2,0
							c0.1,0,0.3,0.1,0.3,0.1c0.1,0.1,0.1,0.2,0.1,0.3l0,1.4c0,0.3-0.2,0.5-0.5,0.5L304.1,330.6z"/>
						<path d="M306.4,328.7l0,1.4l-2.2,0l0-1.4L306.4,328.7 M306.4,327.7C306.4,327.7,306.4,327.7,306.4,327.7l-2.2,0
							c-0.5,0-1,0.4-1,1l0,1.4c0,0.3,0.1,0.5,0.3,0.7c0.2,0.2,0.4,0.3,0.7,0.3c0,0,0,0,0,0l2.2,0c0.5,0,1-0.4,1-1l0-1.4
							c0-0.3-0.1-0.5-0.3-0.7C306.9,327.8,306.6,327.7,306.4,327.7L306.4,327.7z"/>
					</g>
					<g>
						<path class="st19" d="M304.1,333.4c-0.3,0-0.5-0.2-0.5-0.5l0-1.3c0-0.3,0.2-0.5,0.5-0.5l2.2,0c0.1,0,0.3,0.1,0.3,0.1
							c0.1,0.1,0.1,0.2,0.1,0.3l0,1.3c0,0.1-0.1,0.3-0.1,0.3c-0.1,0.1-0.2,0.1-0.3,0.1H304.1z"/>
						<path d="M306.4,331.6l0,1.3l-2.2,0l0-1.3L306.4,331.6 M306.4,330.6C306.4,330.6,306.4,330.6,306.4,330.6l-2.2,0
							c-0.5,0-1,0.4-1,1l0,1.3c0,0.3,0.1,0.5,0.3,0.7c0.2,0.2,0.4,0.3,0.7,0.3c0,0,0,0,0,0l2.2,0c0.5,0,1-0.4,1-1l0-1.3
							c0-0.3-0.1-0.5-0.3-0.7C306.9,330.7,306.6,330.6,306.4,330.6L306.4,330.6z"/>
					</g>
					<g>
						<path class="st19" d="M304.1,336.3c-0.3,0-0.5-0.2-0.5-0.5l0-1.4c0-0.1,0.1-0.3,0.1-0.3c0.1-0.1,0.2-0.1,0.3-0.1h2.2
							c0.3,0,0.5,0.2,0.5,0.5v1.4c0,0.3-0.2,0.5-0.5,0.5H304.1z"/>
						<path d="M306.4,334.4l0,1.4l-2.2,0l0-1.4L306.4,334.4 M306.4,333.4C306.4,333.4,306.4,333.4,306.4,333.4l-2.2,0
							c-0.5,0-1,0.4-1,1l0,1.4c0,0.3,0.1,0.5,0.3,0.7c0.2,0.2,0.4,0.3,0.7,0.3c0,0,0,0,0,0l2.2,0c0.5,0,1-0.4,1-1l0-1.4
							c0-0.3-0.1-0.5-0.3-0.7C306.9,333.5,306.6,333.4,306.4,333.4L306.4,333.4z"/>
					</g>
					<g>
						<path class="st19" d="M304.1,339.1c-0.1,0-0.3-0.1-0.3-0.1c-0.1-0.1-0.1-0.2-0.1-0.3l0-1.3c0-0.1,0.1-0.3,0.1-0.3
							c0.1-0.1,0.2-0.1,0.3-0.1h2.2c0.3,0,0.5,0.2,0.5,0.5v1.3c0,0.3-0.2,0.5-0.5,0.5L304.1,339.1z"/>
						<path d="M306.4,337.3l0,1.3l-2.2,0l0-1.3L306.4,337.3 M306.4,336.3C306.4,336.3,306.4,336.3,306.4,336.3l-2.2,0
							c-0.3,0-0.5,0.1-0.7,0.3c-0.2,0.2-0.3,0.4-0.3,0.7l0,1.3c0,0.5,0.4,1,1,1c0,0,0,0,0,0l2.2,0c0.5,0,1-0.4,1-1l0-1.3
							c0-0.3-0.1-0.5-0.3-0.7C306.9,336.4,306.6,336.3,306.4,336.3L306.4,336.3z"/>
					</g>
					<g>
						<path class="st19" d="M304.1,342c-0.1,0-0.3-0.1-0.3-0.1c-0.1-0.1-0.1-0.2-0.1-0.3l0-1.4c0-0.1,0.1-0.3,0.1-0.3
							c0.1-0.1,0.2-0.1,0.3-0.1h2.2c0.3,0,0.5,0.2,0.5,0.5v1.4c0,0.3-0.2,0.5-0.5,0.5L304.1,342z"/>
						<path d="M306.4,340l0,1.4l-2.2,0l0-1.4L306.4,340 M306.4,339.1C306.4,339.1,306.4,339.1,306.4,339.1l-2.2,0
							c-0.3,0-0.5,0.1-0.7,0.3c-0.2,0.2-0.3,0.4-0.3,0.7l0,1.4c0,0.3,0.1,0.5,0.3,0.7c0.2,0.2,0.4,0.3,0.7,0.3c0,0,0,0,0,0l2.2,0
							c0.5,0,1-0.4,1-1l0-1.4C307.3,339.5,306.9,339.1,306.4,339.1L306.4,339.1z"/>
					</g>
					<g>
						<path class="st19" d="M304.1,344.7c-0.1,0-0.3-0.1-0.3-0.1c-0.1-0.1-0.1-0.2-0.1-0.3l0-1.3c0-0.1,0.1-0.3,0.1-0.3
							c0.1-0.1,0.2-0.1,0.3-0.1h2.2c0.3,0,0.5,0.2,0.5,0.5v1.3c0,0.3-0.2,0.5-0.5,0.5L304.1,344.7z"/>
						<path d="M306.4,343l0,1.3l-2.2,0l0-1.3L306.4,343 M306.4,342C306.4,342,306.4,342,306.4,342l-2.2,0c-0.3,0-0.5,0.1-0.7,0.3
							c-0.2,0.2-0.3,0.4-0.3,0.7l0,1.3c0,0.5,0.4,1,1,1c0,0,0,0,0,0l2.2,0c0.5,0,1-0.4,1-1l0-1.3c0-0.3-0.1-0.5-0.3-0.7
							C306.9,342.1,306.6,342,306.4,342L306.4,342z"/>
					</g>
					<g>
						<path class="st19" d="M304.1,347.6c-0.1,0-0.3-0.1-0.3-0.1c-0.1-0.1-0.1-0.2-0.1-0.3l0-1.4c0-0.3,0.2-0.5,0.5-0.5l2.2,0
							c0.1,0,0.3,0.1,0.3,0.1c0.1,0.1,0.1,0.2,0.1,0.3v1.4c0,0.3-0.2,0.5-0.5,0.5L304.1,347.6z"/>
						<path d="M306.4,345.7l0,1.4l-2.2,0l0-1.4L306.4,345.7 M306.4,344.7C306.4,344.7,306.4,344.7,306.4,344.7l-2.2,0
							c-0.5,0-1,0.4-1,1l0,1.4c0,0.5,0.4,1,1,1c0,0,0,0,0,0l2.2,0c0.3,0,0.5-0.1,0.7-0.3c0.2-0.2,0.3-0.4,0.3-0.7l0-1.4
							c0-0.3-0.1-0.5-0.3-0.7C306.9,344.8,306.6,344.7,306.4,344.7L306.4,344.7z"/>
					</g>
					<g>
						<path class="st19" d="M304.1,350.4c-0.3,0-0.5-0.2-0.5-0.5l0-1.3c0-0.3,0.2-0.5,0.5-0.5l2.2,0c0.1,0,0.3,0.1,0.3,0.1
							c0.1,0.1,0.1,0.2,0.1,0.3v1.3c0,0.3-0.2,0.5-0.5,0.5H304.1z"/>
						<path d="M306.4,348.6l0,1.3l-2.2,0l0-1.3L306.4,348.6 M306.4,347.7C306.4,347.7,306.4,347.7,306.4,347.7l-2.2,0
							c-0.3,0-0.5,0.1-0.7,0.3c-0.2,0.2-0.3,0.4-0.3,0.7l0,1.3c0,0.5,0.4,1,1,1c0,0,0,0,0,0l2.2,0c0.5,0,1-0.4,1-1l0-1.3
							c0-0.3-0.1-0.5-0.3-0.7C306.9,347.8,306.6,347.7,306.4,347.7L306.4,347.7z"/>
					</g>
					<g>
						<path class="st19" d="M304.1,353.3c-0.3,0-0.5-0.2-0.5-0.5l0-1.4c0-0.1,0.1-0.3,0.1-0.3c0.1-0.1,0.2-0.1,0.3-0.1h2.2
							c0.3,0,0.5,0.2,0.5,0.5v1.4c0,0.3-0.2,0.5-0.5,0.5H304.1z"/>
						<path d="M306.3,351.4l0,1.4l-2.2,0l0-1.4L306.3,351.4 M306.3,350.4C306.3,350.4,306.3,350.4,306.3,350.4l-2.2,0
							c-0.3,0-0.5,0.1-0.7,0.3c-0.2,0.2-0.3,0.4-0.3,0.7l0,1.4c0,0.3,0.1,0.5,0.3,0.7c0.2,0.2,0.4,0.3,0.7,0.3c0,0,0,0,0,0l2.2,0
							c0.5,0,1-0.4,1-1l0-1.4C307.3,350.9,306.8,350.4,306.3,350.4L306.3,350.4z"/>
					</g>
					<g>
						<path class="st19" d="M304.1,356.1c-0.1,0-0.3-0.1-0.3-0.1c-0.1-0.1-0.1-0.2-0.1-0.3v-1.3c0-0.3,0.2-0.5,0.5-0.5h2.2
							c0.3,0,0.5,0.2,0.5,0.5l0,1.3c0,0.3-0.2,0.5-0.5,0.5L304.1,356.1z"/>
						<path d="M306.3,354.3l0,1.3l-2.2,0l0-1.3L306.3,354.3 M306.3,353.3C306.3,353.3,306.3,353.3,306.3,353.3l-2.2,0
							c-0.5,0-1,0.4-1,1l0,1.3c0,0.3,0.1,0.5,0.3,0.7c0.2,0.2,0.4,0.3,0.7,0.3c0,0,0,0,0,0l2.2,0c0.5,0,1-0.4,1-1l0-1.3
							c0-0.3-0.1-0.5-0.3-0.7C306.8,353.4,306.6,353.3,306.3,353.3L306.3,353.3z"/>
					</g>
					<g>
						<path class="st19" d="M304.1,359.3c-0.3,0-0.5-0.2-0.5-0.5v-1.4c0-0.3,0.2-0.5,0.5-0.5h2.2c0.3,0,0.5,0.2,0.5,0.5l0,1.4
							c0,0.1-0.1,0.3-0.1,0.3c-0.1,0.1-0.2,0.1-0.3,0.1H304.1z"/>
						<path d="M306.3,357.4l0,1.4l-2.2,0l0-1.4L306.3,357.4 M306.3,356.4C306.3,356.4,306.3,356.4,306.3,356.4l-2.2,0
							c-0.5,0-1,0.4-1,1l0,1.4c0,0.5,0.4,1,1,1c0,0,0,0,0,0l2.2,0c0.3,0,0.5-0.1,0.7-0.3c0.2-0.2,0.3-0.4,0.3-0.7l0-1.4
							c0-0.3-0.1-0.5-0.3-0.7C306.8,356.5,306.6,356.4,306.3,356.4L306.3,356.4z"/>
					</g>
					<g>
						<path class="st19" d="M304.1,362.1c-0.1,0-0.3-0.1-0.3-0.1c-0.1-0.1-0.1-0.2-0.1-0.3v-1.3c0-0.3,0.2-0.5,0.5-0.5h2.2
							c0.3,0,0.5,0.2,0.5,0.5l0,1.3c0,0.3-0.2,0.5-0.5,0.5L304.1,362.1z"/>
						<path d="M306.3,360.3l0,1.3l-2.2,0l0-1.3L306.3,360.3 M306.3,359.3C306.3,359.3,306.3,359.3,306.3,359.3l-2.2,0
							c-0.3,0-0.5,0.1-0.7,0.3c-0.2,0.2-0.3,0.4-0.3,0.7l0,1.3c0,0.5,0.4,1,1,1c0,0,0,0,0,0l2.2,0c0.3,0,0.5-0.1,0.7-0.3
							c0.2-0.2,0.3-0.4,0.3-0.7l0-1.3C307.3,359.8,306.8,359.3,306.3,359.3L306.3,359.3z"/>
					</g>
					<path class="st20" d="M301.5,320.7c0,0,2.2,2.9,1.9,4.4c-0.3,1.5,0.1,9.7,0,14s0,15.1,0,18.3c0,3.2,0,4.2,0,4.7
						c0,0.6,0,0.6,0,0.6h3.6v-4.9v-10.9v-8v-7.9v-5.9c0,0,0.4-2,1.7-3.5C310.2,320.2,305.8,315.4,301.5,320.7z"/>
				</g>
				<path class="st3" d="M285.3,301.6c0,0,0.9,5.3,3.7,12.1c2.8,6.8,6.2,5.2,7,17c0.8,11.8,1.2,25.9,0.7,32c0,0,6.1,0,10.4,0
					s7.1,0,7.1,0s0.1-9.9,0.3-21.2s-0.6-15.5,3.6-20.1c4.2-4.6,12.6-19.6,13.3-23.5c0.7-4-14.9,10-19.5,17.2
					c-4.5,7.2-6.7,8.7-6.7,8.7S288.7,302.6,285.3,301.6z"/>
			</g>
			<g>
				<g>
					<g>
						<path class="st4" d="M301.3,389.9c-2.2,0-4.3-0.1-6.2-0.2l-3-0.2c-14.5-0.9-28.3-1.7-40.1-11.4c-5.5-4.5-7.5-10.5-5.5-16.1
							c1.5-4.3,5.2-7.2,9.1-7.2c1,0,2.1,0.2,3.1,0.6c0.2,0.1,10.4,5.5,25.1,7.2c4.5,0.5,8.5,0.8,12.4,0.8c4,0,7.2-0.3,9.7-0.5
							c1.7-0.1,3.2-0.3,4.5-0.3l1.9,0c6.2,0,14.3-0.2,22.7-1.7c7.5-1.3,11.8-2.7,14.1-3.4c0.8-0.3,1.4-0.4,1.8-0.5
							c0.2,0,0.6-0.2,1.1-0.3c2-0.6,5.8-1.9,9.1-1.9c2.6,0,4.5,0.8,5.5,2.3l0.2,0.3c1.7,2.5,4.3,6.3,3,10.6
							c-1.2,4.2-5.5,7.9-13.2,11.3C338.9,387.1,315.8,389.9,301.3,389.9z"/>
						<path d="M255.6,355.6c0.9,0,1.9,0.2,2.8,0.6c0,0,10.3,5.5,25.3,7.3c5,0.6,9.1,0.8,12.5,0.8c6.8,0,11-0.8,14.1-0.8
							c0.6,0,1.2,0,1.9,0c5.2,0,13.8-0.1,22.8-1.7c10.2-1.8,14.6-3.7,15.9-3.9c0.9-0.2,6-2.2,10.1-2.2c2.1,0,3.9,0.5,4.9,2
							c3,4.4,9.3,12.8-9.7,21.1c-16.6,7.3-39.2,10.4-54.9,10.4c-2.2,0-4.3-0.1-6.2-0.2c-15.5-1-30.2-1.2-42.6-11.4
							C241.4,368.4,247.8,355.6,255.6,355.6 M255.6,354.1L255.6,354.1c-4.2,0-8.1,3.1-9.8,7.7c-2.1,5.9,0,12.2,5.7,16.9
							c12,9.9,25.9,10.7,40.5,11.6c1,0.1,2,0.1,3,0.2c1.9,0.1,4,0.2,6.3,0.2c14.6,0,37.8-2.8,55.5-10.6c7.9-3.5,12.4-7.3,13.6-11.7
							c1.3-4.7-1.3-8.6-3.1-11.2l-0.2-0.3c-1.2-1.7-3.2-2.6-6.1-2.6c-3.4,0-7.3,1.2-9.4,1.9c-0.4,0.1-0.9,0.3-1,0.3
							c-0.4,0.1-1,0.3-1.9,0.5c-2.3,0.7-6.6,2-14,3.4c-8.3,1.5-16.4,1.7-22.6,1.7l-1.1,0l-0.8,0c-1.3,0-2.8,0.1-4.5,0.3
							c-2.5,0.2-5.6,0.5-9.6,0.5c-3.9,0-7.9-0.2-12.3-0.8c-14.5-1.7-24.6-7-24.7-7.1l-0.1,0l-0.1,0
							C257.9,354.3,256.8,354.1,255.6,354.1L255.6,354.1z"/>
					</g>
					<g>
						<g>
							<path d="M261.3,360.8c6.9,4.3,15.4,5.6,23.4,6.3c0,0,3.5,0.2,3.5,0.2c-7.1,0.1-14.3-0.4-21.1-2.4c-2.3-0.7-4.5-1.5-6.7-2.8
								C260.5,362,261.3,360.8,261.3,360.8L261.3,360.8z"/>
						</g>
						<g>
							<path d="M259.6,369.4c2,1.3,4.3,2.3,6.7,3c-1.2-0.1-2.5-0.3-3.7-0.6c-1.3-0.3-2.4-0.6-3.7-1.1
								C258.9,370.7,259.6,369.4,259.6,369.4L259.6,369.4z"/>
						</g>
						<g>
							<path d="M279.7,380.8c2.6,1,5.5,1.6,8.3,2.1c-1.4,0-2.9-0.1-4.3-0.2c-1.5-0.1-2.9-0.3-4.4-0.6
								C279.2,382.2,279.7,380.8,279.7,380.8L279.7,380.8z"/>
						</g>
						<g>
							<path class="st4" d="M278,389.9c-1,0-2.1-0.9-2.5-1.4c-0.7-0.9-0.7-3.3-0.3-8.9c0-0.7,0.1-1.4,0.1-2.1
								c0.2-3.7,0.2-12.3,0-13.3c-0.1-0.9-0.3-3.1,2.9-3.5c0.2,0,0.5,0,0.7,0c2,0,2.7,1.1,2.8,1.3l0.4,0.6l-0.7,0.4
								c0,0-0.6,0.4-1.6,1.6c-0.3,0.4-1.1,2.2-0.8,10.7c0.1,1.5,0.2,3.3,0.3,5c0.2,3.3,0.4,6.4,0.3,7.9
								C279.5,389.7,278.3,389.9,278,389.9L278,389.9z"/>
							<path d="M278.9,361.4c1.6,0,2.2,0.9,2.2,0.9s-0.7,0.4-1.8,1.8s-1.1,6.8-0.9,11.2c0.2,4.4,0.8,10.7,0.6,12.7
								c-0.1,0.9-0.5,1.2-1,1.2c-0.7,0-1.5-0.6-2-1.2c-0.8-0.9-0.2-6.9,0-10.5s0.2-12.3,0-13.4c-0.1-1.1-0.2-2.4,2.3-2.7
								C278.6,361.4,278.8,361.4,278.9,361.4 M278.9,359.9c-0.2,0-0.5,0-0.7,0c-4,0.5-3.7,3.3-3.6,4.3c0.1,1,0.2,9.5,0,13.2
								c0,0.6-0.1,1.3-0.1,2.1c-0.4,6.2-0.4,8.4,0.5,9.5c0.7,0.8,1.8,1.7,3.1,1.7c1,0,2.2-0.6,2.4-2.5c0.2-1.5,0-4.5-0.3-8
								c-0.1-1.7-0.2-3.5-0.3-5c-0.4-8.8,0.6-10.2,0.6-10.2c0.8-1.1,1.4-1.4,1.4-1.4l1.3-0.7l-0.8-1.3
								C282.3,361.3,281.3,359.9,278.9,359.9L278.9,359.9z"/>
						</g>
					</g>
					<g>
						<g>
							<path d="M354.8,375.6c-8.5,4.4-18.4,5-27.8,4.9c7-0.2,14.1-1.1,20.7-3.3c2.1-0.7,4.4-1.6,6.2-2.8
								C354,374.4,354.8,375.6,354.8,375.6L354.8,375.6z"/>
						</g>
						<g>
							<path d="M352.9,366.2c-2.4,0.9-4.8,1.3-7.3,1.6c1.8-0.5,3.5-1.2,5.1-2c0.5-0.3,1.1-0.6,1.6-0.9L352.9,366.2L352.9,366.2z"/>
						</g>
						<g>
							<path d="M334.3,366c-2.9,0.5-5.8,0.6-8.7,0.7c1.4-0.2,2.8-0.5,4.2-0.9c1.4-0.3,2.8-0.7,4.1-1.2
								C333.8,364.6,334.3,366,334.3,366L334.3,366z"/>
						</g>
						<g>
							<path class="st4" d="M335.5,386.8c-0.3,0-1.5-0.1-1.7-1.7c-0.2-1.3,0-4.3,0.3-7.4c0.1-1.6,0.2-3.3,0.3-4.7
								c0.3-6.4-0.2-9.3-0.8-10c-0.9-1.1-1.6-1.5-1.6-1.5l-0.7-0.4l0.4-0.7c0.1-0.1,0.8-1.2,2.8-1.2c0.2,0,0.4,0,0.7,0
								c1.2,0.1,2,0.5,2.5,1.1c0.6,0.7,0.5,1.5,0.4,2.2c-0.1,1-0.2,9,0,12.5c0,0.6,0.1,1.2,0.1,1.9c0.4,5.3,0.4,7.6-0.3,8.5
								C337.5,386,336.5,386.8,335.5,386.8z"/>
							<path d="M334.5,360c0.2,0,0.4,0,0.6,0c2.4,0.3,2.4,1.4,2.3,2.5c-0.1,1.1-0.2,9.2,0,12.6c0.2,3.4,0.8,9,0,9.9
								c-0.5,0.5-1.3,1.1-2,1.1c-0.5,0-0.9-0.3-1-1.1c-0.2-1.9,0.4-7.8,0.6-12c0.2-4.1,0.1-9.2-0.9-10.5c-1.1-1.3-1.8-1.7-1.8-1.7
								S332.9,360,334.5,360 M334.5,358.5L334.5,358.5c-1.8,0-3,0.8-3.4,1.5l-0.9,1.3l1.4,0.8c0,0,0,0,0,0c0,0,0.5,0.3,1.4,1.3
								c0,0,1,1.4,0.6,9.5c-0.1,1.4-0.2,3.1-0.3,4.7c-0.2,3.3-0.4,6.1-0.3,7.5c0.2,1.8,1.4,2.4,2.4,2.4c1.2,0,2.4-0.9,3-1.6
								c0.9-1,0.9-3.1,0.5-9c0-0.7-0.1-1.3-0.1-1.9c-0.2-3.4-0.2-11.4,0-12.4c0.1-0.6,0.2-1.8-0.6-2.8c-0.6-0.8-1.6-1.2-3-1.4
								C335,358.5,334.8,358.5,334.5,358.5L334.5,358.5z"/>
						</g>
					</g>
				</g>
				<g>
					<path class="st16" d="M348.5,357.5c0,0-3-2.1-2-5.3s2.7-3.9,8.7-8.3c6-4.4,12.8-8.5,16.6-8.7c3.7-0.1,7.2-0.4,12.1,6.2
						c4.9,6.6,6.7,13.4,3,14.3c0,0,3.6,5.7,2.5,9.8c-1.1,4.1-5.6,9.5-7.7,11.2c0,0-2.5,3.1-4.9,1.5c0,0-5.7,8.1-12.7,8.6
						c-3.6,0.3-7.9-7.9-7.9-7.9s-2-7.4-2.4-10.1s-1.6-8.1-1.7-9.1C352,359,349.2,358.1,348.5,357.5z"/>
					<path class="st3" d="M376.1,379.3c0.3-0.2,1.9-5.2,0-13.7c-1.9-8.5-2.6-6.9-2.1-9c0.5-2.1,0.4-3.1-1.7-7.9
						c-2.1-4.7-4.4-9.6-8.2-10.6"/>
					<path class="st15" d="M364,338.9c0,0,3.2,1,7.2,9c3,6.1,3.3,7.5,2.2,8.9c-1.1,1.4-4.1,4.3-6.7,5.3s-3.9,2.5-4.4,0.9
						c-0.5-1.6-0.9-4.5-3.6-7.1c-2.5-2.4-5-3-6.1-3.5c-1.1-0.5-6.8,0.3-5.5-1.5C348.4,349.2,357.8,341.5,364,338.9z"/>
					<path class="st15" d="M388.6,354.3c0,0-4.4,3.4-8.1,3.4s-0.7-12.5-10-18.5c0,0-2.5-2-5.9-1.4c0,0,4.9-3.3,10.4-2.5
						c5.5,0.8,8.7,5.5,11.9,11.1C390.1,352.1,388.9,352.1,388.6,354.3z"/>
					<path class="st21" d="M379.7,378.5c3.3-2.3,2.4-7.9,1.5-12.8c-0.9-4.9-0.7-8-0.7-8s-2-0.6-4-9.6s-10.2-9.8-10.2-9.8
						s-0.7,1.7,0.9,3c2.6,2,6.8,10.3,7.2,12.1c0.4,1.8-0.1,3.1-0.3,3.8s0.8,3.5,1.2,5.2c0.4,1.8,2.3,9.5,1.5,14.7l-0.1,1.3
						C376.8,378.4,378.6,379.3,379.7,378.5z"/>
					<path class="st21" d="M364.1,387c2.1,0,0.4-11.1-1.2-14.7s-2.3-5.2-2.4-9.6c-0.1-4.4-0.7-4.3-1.2-5c-1.4-1.7-3-3.9-6.3-4.2
						c-3.2-0.3-6.4-1.2-6.4-1.2s-0.9,2.1,0.9,4.2s3.6,2.1,4.2,2.8c0.5,0.7,1.7,5.2,2.2,8.7c0.5,3.5,1.2,9.1,2.4,11.2
						C357.5,381.2,360.1,387,364.1,387z"/>
					<g>
						<path d="M350.9,350c4-3.9,8.7-7,13.8-9.2C360.7,344.7,356,347.8,350.9,350L350.9,350z"/>
					</g>
					<g>
						<path d="M377.9,338.3c4.8,1.8,7.7,6.8,8.6,11.6c0.1,0.7,0.2,1.4,0.2,2.1c-0.3-0.7-0.5-1.3-0.7-2
							C384.4,345.5,381.9,341.1,377.9,338.3L377.9,338.3z"/>
					</g>
					<path class="st22" d="M379.6,357.5c0,0-5.2-0.2-5.2-2.2s-7.5-14.7-6.5-14.1c3.3,1.8,4.6-0.5,9.7,11
						C377.8,352.8,378.6,356.3,379.6,357.5z"/>
					<path class="st22" d="M361.7,369c0,0-6.7-1.9-7.9-5.3c-2.7-8-10.1-5.8-7.3-10.4c2-3.2,14.9,0.5,13.9,9.4
						C360.4,363.3,360.8,367.9,361.7,369z"/>
				</g>
				<g>
					<path class="st16" d="M264,358.8c0,0,3-2.1,2-5.3c-1.1-3.1-2.7-3.9-8.7-8.3c-6-4.4-12.8-8.5-16.6-8.7
						c-3.7-0.1-7.2-0.4-12.1,6.2c-4.9,6.6-6.7,13.4-3,14.3c0,0-3.6,5.7-2.5,9.8c1.1,4.1,5.6,9.5,7.7,11.2c0,0,2.5,3.1,4.9,1.5
						c0,0,5.7,8.1,12.7,8.6c3.6,0.3,7.9-7.9,7.9-7.9s2-7.4,2.4-10.1s1.6-8.1,1.7-9.1C260.5,360.2,263.3,359.4,264,358.8z"/>
					<path class="st3" d="M236.4,380.5c-0.3-0.2-1.9-5.2,0-13.7c1.9-8.5,2.6-6.9,2.1-9c-0.5-2.1-0.4-3.1,1.7-7.9
						c2.1-4.7,4.4-9.6,8.2-10.6"/>
					<path class="st15" d="M248.5,340.1c0,0-3.2,1-7.2,9c-3,6.1-3.3,7.5-2.2,8.9c1.1,1.4,4.1,4.3,6.7,5.3c2.6,1,3.9,2.5,4.4,0.9
						c0.5-1.6,0.9-4.5,3.6-7.1c2.5-2.4,5-3,6.1-3.5c1.1-0.5,6.8,0.3,5.5-1.5C264.1,350.4,254.7,342.8,248.5,340.1z"/>
					<path class="st15" d="M223.9,355.6c0,0,4.4,3.4,8.1,3.4s0.7-12.5,10-18.5c0,0,2.5-2,5.9-1.4c0,0-4.9-3.3-10.4-2.5
						c-5.5,0.8-8.7,5.5-11.9,11.1C222.4,353.4,223.6,353.4,223.9,355.6z"/>
					<path class="st21" d="M232.8,379.7c-3.3-2.3-2.4-7.9-1.5-12.8c0.9-4.9,0.7-8,0.7-8s2-0.6,4-9.6c2-9,10.2-9.8,10.2-9.8
						s0.7,1.7-0.9,3c-2.6,2-6.8,10.3-7.2,12.1c-0.4,1.8,0.1,3.1,0.3,3.8c0.2,0.6-0.8,3.5-1.2,5.2c-0.4,1.8-2.3,9.5-1.5,14.7l0.1,1.3
						C235.7,379.7,233.9,380.6,232.8,379.7z"/>
					<path class="st21" d="M248.4,388.3c-2.1,0-0.4-11.1,1.2-14.7c1.6-3.6,2.3-5.2,2.4-9.6c0.1-4.4,0.7-4.3,1.2-5
						c1.4-1.7,3-3.9,6.3-4.2c3.2-0.3,6.4-1.2,6.4-1.2s0.9,2.1-0.9,4.2c-1.8,2.1-3.6,2.1-4.2,2.8c-0.5,0.7-1.7,5.2-2.2,8.7
						s-1.2,9.1-2.4,11.2C255,382.5,252.4,388.3,248.4,388.3z"/>
					<g>
						<path d="M261.6,351.3c-5.1-2.2-9.8-5.3-13.8-9.2C252.9,344.2,257.6,347.4,261.6,351.3L261.6,351.3z"/>
					</g>
					<g>
						<path d="M234.6,339.6c-4,2.8-6.5,7.2-8.1,11.7c-0.2,0.7-0.4,1.3-0.7,2c0-0.7,0.1-1.4,0.2-2.1
							C226.9,346.3,229.8,341.3,234.6,339.6L234.6,339.6z"/>
					</g>
					<path class="st22" d="M233,358.7c0,0,5.2-0.2,5.2-2.2s7.5-14.7,6.5-14.1c-3.3,1.8-4.6-0.5-9.7,11
						C234.7,354.1,233.9,357.6,233,358.7z"/>
					<path class="st22" d="M250.8,370.3c0,0,6.7-1.9,7.9-5.3c2.7-8,10.1-5.8,7.3-10.4c-2-3.2-14.9,0.5-13.9,9.4
						C252.1,364.6,251.8,369.1,250.8,370.3z"/>
				</g>
			</g>
			<g>
				<path class="st23" d="M309,391h-5c-6.4,0-11.7-5.2-11.7-11.7v-5c0-6.4,5.2-11.7,11.7-11.7h5c6.4,0,11.7,5.2,11.7,11.7v5
					C320.7,385.8,315.5,391,309,391z"/>
				<path class="st23" d="M307,387.6L307,387.6c-5.7,0-10.3-4.6-10.3-10.3V376c0-5.7,4.6-10.3,10.3-10.3h0c5.7,0,10.3,4.6,10.3,10.3
					v1.2C317.3,383,312.7,387.6,307,387.6z"/>
			</g>
		</g>
		<g>
			<path class="st1" d="M303.4,276.5c0,0,11.2,1.2,19.8-2.3c8.6-3.5,25.8-11,33.1-13.1c7.3-2.1,14.3-2.6,19.9-3
				c5.6-0.4,10.3-1.2,12.6-2.1c2.3-0.9,4.6-0.9,4.6-0.9s-3.9-0.7-5.7-1.8s20.4-0.6,36-12.7c15.6-12.1-2.5,0-2.5,0
				s17.7-13.2,20.1-16.2c2.4-3,9-11.3,14.7-18.1s7-10.2,7-10.2s-5.2,4-9.4,8.3c-4.3,4.3,7.5-6.9,8.7-11.6s3.3-6,3.3-6l3.4-1.5
				c0,0-16-0.4-23.1,0s2.5-2.2,2.7-3.4c0.2-1.1-2.9,0.4-8.6-2.5s-3.2-5.7-8-9.2s3.4,1.1,4.7,0.1c0,0-1.6-0.3-1.6-2.4
				s-1.8-2.2-7.2-3.4c-5.4-1.2-0.2-0.9,0-3.3c0,0-4.8,2.2-5,0.8c-0.1-1.4,0.1,3.9-1.5,3.7c0,0,6.5-111.6-112.7-113.6
				S186,151.1,186.5,161.1c0.5,10-5.2,5.6-6.6,3.2s-7.3,0-7.3,0s6.6-1.4,6.3,2.1s-3.5,6.5-7.3,7.1s2.7,0.7,2.7,0.7
				s-2.1,7.1-12.8,8.1c-10.6,1-9,0-9,0l3.5,2c0,0-12,1.3-15.5,0.7c-3.5-0.7,4,7.7,4,7.7l4.5,4.7l-7-2.4c0,0,6.4,10.6,11.3,14.2
				c5,3.6-5.9-2.9-5.9-2.9s7.6,9.1,12.6,11.8c5,2.7,9.2,4.3,9.2,4.3s-12.2-2.8-16.2-6c0,0,13.7,10.4,18.6,12.3
				c4.9,1.9-4.5,0.4-4.5,0.4s5.3,10.1,22.6,15.4c17.3,5.3,14.2,3.6,6,3.3s14.1,3.5,15.4,5.5c1.3,2,3.3,0.6,3.3,0.6s-5,1.9-9.8,1
				c0,0,6.7,1.4,8,2.4c1.2,1,8.2,1.9,13,0.9c4.7-1-4.1,2.5-3.7,2.4s18-2,30.2,0.9c12.2,2.9,22.3,9.3,28.3,11.4
				C286.6,274.9,292.7,277.2,303.4,276.5z"/>
			<g>
				<path class="st0" d="M383.9,78.4c0,0,29.2-16.1,32.3-18.3c3.1-2.2,4.9-4.8,4.9-4.8l-1.8,5.9c0,0,14.4-6.9,17.4-11.3
					c3-4.4-1.7,5.4-1.7,5.4l14.7-9l-2.1,3.1c0,0,16.2-6.6,17.5-8.7c1.4-2.1,0.3,5.5,0.3,5.5s4.8-6.8,4.7-7.5
					c-0.2-0.7,0.7,2.2,0.6,10.9s2,0.6,2,0.6s3.8,7-0.9,20s3-1.2,3-1.2s-5,21.2-13.1,28.7l4.6-3.5c0,0-6.3,13.1-9.6,15.6
					c-3.4,2.4,6.1-3.3,6.1-3.3s-6.3,13.1-14.7,18c-8.5,4.9,3-0.2,3-0.2s-15.2,17.4-35.6,17.5C394.9,141.8,372.6,89.6,383.9,78.4z"/>
				<g>
					<path class="st17" d="M425.6,73.2c1.2-1.4,14.1-11.4,17.4-13.7s4.4-2.6,4.4-2.6s-4.4,4.1-3.6,3.9c0.8-0.2,3.8-0.7,3.8-0.7
						s5.5,2.4,8.8-1.1s0.4,4.1,0.3,5.8c-0.1,1.7,0.3,5.3-1,6.9s3.2-3,2.7-4.3c-0.5-1.3-0.9,6.2-2.2,8.1s4-2-1,9.2
						c-5,11.3-10.9,17.1-12.8,25.3s-5.7,11.4-6.7,13.9c-1,2.5-1.6,4.7,1.1,5.4c2.7,0.7,5.5-0.3,5.5-0.3s-5.5,2.8-6.2,2.8
						c-0.7,0-2.9,2.3,1.9,1.2s-5.7,5.6-12.5,7.6c-6.8,2-23.3,5.2-33.7-18.7C381.4,97.9,412.9,88,425.6,73.2z"/>
					<path class="st24" d="M416.1,101.3c0,0,2.9-4,10.4-3.6c7.5,0.5,2.2,2.9,4.4,3.8s3.2,5.6,1.9,7.6c-1.3,2.1-9.1,14.5-10.1,17
						c-1,2.5,0.6,9.7-4.7,11.7c-5.3,2-25.3-11.2-12.6-24.8S416.1,101.3,416.1,101.3z"/>
					<path class="st1" d="M422.9,59.7c0,0-2.9,4.8-4.1,6.5c-1.2,1.7,4.5,0.9,4.5,0.9s0,6.4-1.8,9.2c-1.8,2.8,10-8.8,10-8.8
						s-7,9.5-7.2,14.5c-0.2,5-3.3,9.5-4.8,12.4c-1.5,2.9,1.3,1.6,1.3,1.6l-24.7,30.1c0,0-17.6-30.8-16-40.1S393,72.7,402,68.6
						C411,64.6,422.9,59.7,422.9,59.7"/>
				</g>
			</g>
			<g>
				<g>
					<path class="st0" d="M225.9,77.5c0,0-33.5-12.8-36.8-14.8s-9.1-5.7-9.1-5.7l6.5,7.4c0,0-12.1-9.8-16.7-12.5
						c-6.1-3.7,3.8,5.3,3.8,5.3l-17.6-9.5l4.6,4.2c0,0-15.2-7.6-16.7-9.6c-1.5-2-1.3,7.3-1.3,7.3s-5.2-6.5-5.1-7.2
						c0.1-0.7-0.6,2.2,0,11c0.6,8.7-2,0.7-2,0.7s-3.4,7.2,2,19.9c5.4,12.7-3-1-3-1s6.1,20.9,14.6,27.9l-4.7-3.3c0,0,7,12.8,10.5,15
						c3.5,2.2-6.2-3-6.2-3s7,12.8,15.7,17.2s-3,0-3,0s16.1,16.6,36.5,15.5S237.7,88.1,225.9,77.5z"/>
					<g>
						<path class="st17" d="M183.9,74.5c-1.2-1.3-14.7-10.6-18.1-12.8c-3.5-2.2-4.5-2.3-4.5-2.3s4.7,3.8,3.8,3.7s-3.8-0.5-3.8-0.5
							s-5.3,2.7-8.8-0.7c-3.5-3.3-0.2,4.2,0,5.8c0.2,1.7,0,5.3,1.3,6.8c1.3,1.5-3.3-2.8-2.9-4.1c0.4-1.3,1.3,6.1,2.6,8
							c1.3,1.8-4.2-1.8,1.5,9.1s11.8,16.4,14.1,24.6c2.3,8.1,6.3,11,7.5,13.5c1.2,2.5,1.8,4.6-0.8,5.5c-2.7,0.8-5.5,0-5.5,0
							s5.6,2.5,6.3,2.5s3.1,2.1-1.8,1.3c-4.9-0.8,5.9,5.3,12.9,6.9c6.9,1.6,23.6,3.9,32.7-20.5C229.4,96.8,197.4,88.6,183.9,74.5z"
							/>
						<path class="st24" d="M194.9,102.2c0,0-3.1-3.9-10.6-3c-7.5,0.9-2,3-4.2,4c-2.2,1-2.9,5.7-1.5,7.7c1.4,2,9.9,14,11,16.4
							c1.1,2.5,0,9.7,5.3,11.5c5.4,1.7,24.6-12.5,11.2-25.4S194.9,102.2,194.9,102.2z"/>
					</g>
				</g>
				<path class="st1" d="M184.1,60.9c0,0,3.1,4.6,4.4,6.3c1.3,1.7-4.4,1.2-4.4,1.2c0,0.3,5.5,4.5,7.4,6.1c1.3,1.1-2.5,0.9-6.7,0.2
					c-4.1-0.7-8.3-4.8-8.3-4.8s6.9,8.4,7.4,13.4c0.5,5,3.8,9.3,5.5,12.1c1.7,2.8-1.2,1.7-1.2,1.7l26.2,28.7c0,0,15.9-31.7,13.8-40.9
					c-2.1-9.2-13.6-12.7-22.8-16.2S184.1,60.9,184.1,60.9"/>
			</g>
			<path class="st0" d="M303.8,212c0,0,1.6,4.8,2,5.5s2-3.2,2.7-2.7c0.7,0.4,1.2,6.1,1.2,6.1s2.7-4.7,5.2-4.4c0,0,3.2,4,10,4.4
				S337,226.4,342,232c4,4.5,8.1,4.4,8.1,4.4s-1.3,1.1-6.1,0.8s5.5,2.5,7.2,1.5c1.7-1-3.2,5.7-1.1,5.9s2.7,0,2.7,0s-0.9,1.6,0,3.1
				c0.9,1.5,1.6,2.7,1.8,3.6c0.2,0.8,1.1,3.6,2.5,3.8s-4.2,2.1-4.2,2.1s6.3,0.6,6.5,0.6s-3,1.2-4,1.4c-1,0.1,8.2,0,8.2,0
				s-11.5,2.9-24.4,8.5c-13,5.6-18.1,9.2-33.3,9h-4c-15.2,0.2-20.3-3.4-33.3-9c-13-5.6-24.4-8.5-24.4-8.5s9.2,0.1,8.2,0
				c-1-0.1-4.1-1.4-4-1.4c0.1,0,6.5-0.6,6.5-0.6s-5.6-1.9-4.2-2.1s2.2-3,2.5-3.8c0.2-0.8,0.9-2.1,1.8-3.6c0.9-1.5,0-3.1,0-3.1
				s0.7,0.2,2.7,0c2.1-0.2-2.7-6.8-1.1-5.9c1.7,1,12-1.8,7.2-1.5s-6.1-0.8-6.1-0.8s4.1,0.1,8.1-4.4c5-5.6,10.5-10.7,17.3-11.2
				s10-4.4,10-4.4c2.5-0.2,5.2,4.4,5.2,4.4s0.5-5.7,1.2-6.1c0.7-0.4,2.3,3.4,2.7,2.7S303.8,212,303.8,212"/>
			<path class="st25" d="M288.4,254.9c0,0,5.6,5.6,15,4.9s11.9-3.9,14.8-4.3c2.9-0.4,18.6,1.7,16.1,6.7c-2.5,5-12.5,14.7-33.1,12.7
				c-20.6-2.1-25.4-6.5-26.9-10.2C272.7,261.1,276.4,256.1,288.4,254.9z"/>
			<path d="M320.9,263.7c0,0-2.2,2.6-16.9,2.9c-14.7,0.3-16.2-3.3-16-3.4c0.3-0.1,8.9,2,12.4,1.8c3.6-0.2,8.1-0.3,9.9-0.2
				C312.1,264.9,318.2,263.4,320.9,263.7z"/>
			<path class="st25" d="M288.4,254.9c0,0,5.6,5.6,15,4.9s11.9-3.9,14.8-4.3c2.9-0.4,18.6,1.7,16.1,6.7c-2.5,5-12.5,14.7-33.1,12.7
				c-20.6-2.1-25.4-6.5-26.9-10.2C272.7,261.1,276.4,256.1,288.4,254.9z"/>
			<g>
				<path class="st26" d="M302.9,268.6c-10.4,0-14.2-3.9-15.1-5.8c1.9,0.2,3.9,0.3,5.8,0.3c1.7,0,3.1-0.1,4.5-0.3
					c2-0.3,3.9-0.5,5.7-0.5c2.6,0,4.7,0.3,6.5,0.6c0.9,0.1,2.7,0.2,4.6,0.2h0c0.9,0,3,0,4.7-0.2
					C318.4,264.8,314.6,268.6,302.9,268.6z"/>
				<path d="M303.8,263L303.8,263c2.5,0,4.6,0.3,6.4,0.6c0.9,0.2,2.7,0.3,4.7,0.3c0.8,0,1.9,0,3.1-0.1c-1.9,1.8-6,4-15.1,4
					c-8.3,0-12-2.4-13.6-4.2c1.4,0.1,2.8,0.2,4.3,0.2c1.7,0,3.2-0.1,4.6-0.3C300.1,263.2,302,263,303.8,263 M303.8,261.6
					c-1.7,0-3.7,0.1-5.9,0.5c-1.4,0.2-2.9,0.3-4.4,0.3c-2.2,0-4.5-0.2-6.8-0.4c0,0,0,0,0,0c-0.3,0,1.4,7.3,16.1,7.3
					c16.6,0,17.9-7.3,17.9-7.3c-1.4,0.3-3.8,0.4-5.9,0.4c-1.9,0-3.6-0.1-4.5-0.2C308.6,261.9,306.5,261.6,303.8,261.6L303.8,261.6z"
					/>
			</g>
			<path class="st25" d="M288.4,254.9c0,0,5.6,5.6,15,4.9s11.9-3.9,14.8-4.3c2.9-0.4,18.6,1.7,16.1,6.7c-2.5,5-12.5,14.7-33.1,12.7
				c-20.6-2.1-25.4-6.5-26.9-10.2C272.7,261.1,276.4,256.1,288.4,254.9z"/>
			<g>
				<path class="st27" d="M302.5,271.1c-6.5,0-11.8-1.8-15.1-5.2c-2-2.1-2.9-4.2-3.1-5.3c2.4,0.3,4.7,0.5,7.1,0.5
					c2.1,0,3.9-0.2,5.6-0.6c2.4-0.6,4.7-0.8,7-0.8c3,0,5.6,0.5,7.6,1c1,0.2,3,0.4,5.2,0.4c0,0,0,0,0,0c1.3,0,4.1-0.1,6.4-0.5
					c-1,2.9-5,10.5-20.6,10.6C302.7,271.1,302.5,271.1,302.5,271.1z"/>
				<path d="M304,260.5L304,260.5c3,0,5.4,0.5,7.4,0.9c1.1,0.2,3.1,0.4,5.4,0.4c1.1,0,3.2,0,5.2-0.3c-1.5,3.2-6.1,8.8-19.4,8.9
					l-0.2,0c-12,0-15.9-6-17.1-8.9c2,0.2,4,0.4,6,0.4c2.1,0,4-0.2,5.8-0.6C299.5,260.7,301.8,260.5,304,260.5 M304,259
					c-2.1,0-4.5,0.2-7.2,0.9c-1.8,0.4-3.6,0.6-5.4,0.6c-2.6,0-5.3-0.3-7.9-0.6c0,0,0,0,0,0c-0.3,0,1.6,12.1,19.1,12.1
					c0.1,0,0.1,0,0.2,0c19.9-0.1,21.6-12.3,21.6-12.3c-1.8,0.6-4.8,0.8-7.4,0.8c-2.2,0-4.2-0.1-5.1-0.4
					C309.7,259.5,307.1,259,304,259L304,259z"/>
			</g>
			<g>
				<g>
					<path class="st28" d="M276.4,246.9c0,0,1,2.9,4.1,4.5"/>
					<path class="st28" d="M278.5,251.7c0.4,0.3,1.7,2.1,5.2,3.3"/>
					<path class="st28" d="M328.9,247.1c0,0-2.3,2.9-3.5,3.8c-1.2,0.9,0.9,0,0.9,0s-1.7,2.2-5.2,4.2"/>
				</g>
				<g>
					<path class="st29" d="M283.7,242.6c0,0-0.6-7,4.7-9.2c5.4-2.2,11.3-2.4,15.2-2.5c3.9-0.1,11.5,0.4,15.8,3s3.7,7.9,3.6,8.7
						c-0.1,0.9-2.7,15.6-19.6,15.6C286.4,258.2,283.7,242.6,283.7,242.6z"/>
					<path class="st30" d="M286.1,242.1c0,0-2.9-9.2,17.1-9.3c19.9-0.1,18.4,7.6,16.7,7.7c-1.5,0.1-3.5,1.7-6.1,1.6
						c-2-0.1-5.1,1.9-4,6.9c1.1,5,3,3.5,3,3.9s-2.5,3-8.5,2.7c-6-0.2-8.3-1.2-8.2-2.2c0.1-1,2.5,0,2.7-4c0.2-4-1.6-6.6-4.5-7.1
						c-2.9-0.5-3.1,0.1-4-0.9S286.4,241.1,286.1,242.1z"/>
					<path class="st31" d="M291.4,239c0,0,3.4-1.7,10.7-1.8c7.4-0.2,13.3,1.1,13.3,1.5c0,0.5-3.4,1.3-12,1.2S291.9,240.1,291.4,239z
						"/>
				</g>
			</g>
			<g>
				<path class="st32" d="M244.1,241c-12.1-1.4-31.2-4.5-43.4-6.4c-12.3-1.9-31.3-4.6-43.3-6.8c12.1,1.5,31.2,4.5,43.4,6.4
					C213,236.1,232,238.8,244.1,241L244.1,241z"/>
				<path class="st32" d="M225.7,244.7c-14.2-0.4-36.5-1.8-50.9-2.5c-14.4-0.8-36.6-1.8-50.8-3c14.2,0.4,36.5,1.8,50.9,2.5
					C189.3,242.5,211.5,243.5,225.7,244.7L225.7,244.7z"/>
				<path class="st32" d="M142,231c5.5,0.1,13.9,1,19.4,1.4c5.6,0.5,13.9,1,19.4,1.9c-5.5-0.1-13.9-1-19.4-1.4
					C155.8,232.4,147.5,231.9,142,231L142,231z"/>
				<path class="st32" d="M206.7,218.3c8.6,5.2,17.2,10.4,26.4,14.4c1.1,0.5,3.5,1.5,4.6,1.9c1.5,0.7,3.1,1.3,4.6,2l-2.4-0.7
					l-1.2-0.4c-5.1-1.8-10.1-4.2-14.9-6.7C217.9,225.6,212,222.4,206.7,218.3L206.7,218.3z"/>
				<path class="st32" d="M257.5,241.9c-1.2-0.9-2.4-1.8-3.5-2.7c-3-2.2-6.3-4-9.7-5.4c-0.7-0.4-1.3-0.7-2-1.1
					c2.9,0.7,5.6,2.2,8.2,3.6C253,237.9,255.7,239.5,257.5,241.9L257.5,241.9z"/>
				<path class="st32" d="M252.3,249.6c-1.1,0.3-2.2,0.5-3.3,0.8c-2.1,0.4-7.8,1.3-10,1.7c-3.8,0.6-9.5,1.8-13.3,2
					c3.7-1,9.4-1.8,13.2-2.5c2.2-0.4,7.8-1.3,10-1.7C250,249.8,251.2,249.7,252.3,249.6L252.3,249.6z"/>
			</g>
			<g>
				<path class="st32" d="M345.9,244.3c0.3-0.5,0.8-0.8,1.2-1.1c1.4-1,2.8-1.8,4.3-2.6c3.9-2,8.1-3.8,12.1-5.6
					c10-4.7,19.3-10.9,28.7-16.8c-8.8,6.7-18.5,12.3-28.4,17.2c-4,1.8-8.2,3.6-12.1,5.6c-1.5,0.7-3,1.4-4.4,2.3
					C346.7,243.6,346.2,243.9,345.9,244.3L345.9,244.3z"/>
				<path class="st32" d="M360.7,239.1c13.2-2,26.5-3.8,39.7-5.9c9.9-1.5,19.9-2.5,29.8-4.5c3.3-0.6,6.6-1.3,9.7-2.4
					c-6.2,2.5-12.9,3.6-19.5,4.6c-6.6,1-13.3,1.8-19.9,2.7C387.3,235.7,374.1,238,360.7,239.1L360.7,239.1z"/>
				<path class="st32" d="M379.8,244.3c19.8-1.6,40.4-2.2,60.2-2.9c11-0.6,22-2.6,33-2.7c1,0,2,0.1,3,0.4c-1-0.3-2-0.3-3-0.3
					c-11,0.6-22,2.4-33,3c-4,0.3-8,0.3-12.1,0.4C412.4,242.8,395.4,243.9,379.8,244.3L379.8,244.3z"/>
				<path class="st32" d="M351.9,249.6c0.9-0.1,1.7-0.2,2.6-0.3l2.6-0.1c1.7-0.1,3.4-0.1,5.1-0.2c2.1-0.1,4.3-0.3,6.4-0.6
					c0.7-0.1,1.8-0.3,2.5-0.4c0.4-0.1,0.8-0.2,1.3-0.3c-0.4,0.2-0.8,0.4-1.2,0.5c-0.4,0.1-0.8,0.3-1.2,0.4l-1.3,0.2
					c-2.1,0.3-4.3,0.5-6.4,0.7c-1.7,0.1-3.4,0.2-5.1,0.2l-2.6,0.1C353.6,249.8,352.8,249.7,351.9,249.6L351.9,249.6z"/>
				<path class="st32" d="M378.3,254.1c-0.9,0-1.9-0.1-2.8-0.1l-2.8-0.4c-1.9-0.3-3.7-0.6-5.6-0.9c-3.6-0.8-7.6-1.1-10.8-3
					c5.4,1.7,10.9,2.6,16.5,3.5C374.4,253.3,376.6,253.7,378.3,254.1L378.3,254.1z"/>
			</g>
			<g>
				<g>
					<path class="st0" d="M324.9,198.2c0,0-8.7,7.7-9.4,4.3c-0.7-3.3-0.2,4.6-2.2,0.8c-2-3.7-7-12.7-3.2-25.5c5.7-19.3,4-7.4,4-7.4
						l-0.1,4.3c0,0,1.9-6.1,9.5-10.2c0.5-0.3-3.3,9.2-3.2,8.6c0.6-1.9,2.9-7.3,10.6-11.6c8.5-4.7,50-8.8,66.6-1.2
						c16.8,7.6,19.2,12.2,24.4,15c5.2,2.7,14.5,7.9,14.5,7.9l-2.7,0.6c0,0,10.3,4.6,18.8,2.7s18.8-3.9,20.9-3.8
						c2.1,0.2-2.8,4.2-5.3,5.2c-2.5,1,2.2,1,2.2,1s-3.5,5.7-10.9,7.9c-7.4,2.2,1.2,1.6,2.2,1.4c1-0.2-3.7,8.9-13.9,14.4
						c-10.2,5.5,1.7,0,1.7,0s-14.1,12-22.1,13.6c0,0,1.5-2.6,3.2-7.2c1.7-4.5-4.2,2.2-1.7-3.3c2.5-5.5,5.5-8.2,2.7-8.4
						c-2.7-0.2-2-0.7,3.5-2.9s-6.2,2.1-17.1-4.5c-10.9-6.7-12.2-6.4-12.9-7.2c-0.7-0.7,6.3,1.2,6.3,1.2s-10-3.8-12.5-5.3
						c-2.5-1.4-7.9-3.3-18.1-2.4s-13.2,3.3-25.8,0.5c-12.7-2.9-16.6,2.9-16.6,2.9s1-2.7,3.2-4.1
						C343.8,184.1,330.5,194.1,324.9,198.2z"/>
					<path class="st2" d="M453.3,202.4c0,0-9,3.2-15.3,1.9c0,0,5.8-3.2,7.6-4.2c0,0-6.7,2.3-12,2.9l-3,0.8l5.2,0.3l-5.5,3l2.2,0.6
						l-4.3,9.5c0,0-0.6,0.7,1.2,0c1.8-0.7,0.7,5.4-1.3,7.3c-2,2,1,1.2,2.4,0.5s13.7-8.5,15.4-9.7c1.6-1.3,3.5-2.8,3.5-2.8l-5.8,2.4
						l10.3-7l-7.3,2.7c0,0,9.4-4.1,11.9-7.6c2.2-3.1,3.1-4.8,3.1-4.8s-5.2,6.8-10.9,7.6C450.8,205.8,453,203.7,453.3,202.4z"/>
				</g>
				<g>
					<path class="st0" d="M282.7,198.5c0,0,8.7,8,9.5,4.5s0.2,4.8,2.2,0.9s8.7-13.8,3.2-26.6c-5.5-12.7-4-7.7-4-7.7l-0.5,4.7
						c0,0-1.7-9.6-10.5-14.1c-8.7-4.5-55.3-14-71.3-4.7c-15.9,9.2-23.2,20-28.4,22.8c-5.2,2.8-14.2,4.2-14.2,4.2h4.5
						c0,0-10.2,5.9-18.7,3.9c-8.5-2-18.9-4.1-21-3.9c-2.2,0.2,2.8,4.4,5.3,5.4c2.5,1-2.2,1-2.2,1s3.5,6,11,8.2s-1.2,1.7-2.2,1.5
						s3.7,9.2,14,15c10.2,5.7-1.7,0-1.7,0s14.2,12.5,22.2,14.2c0,0-1.5-2.7-3.2-7.5c-1.7-4.7,4.2,2.3,1.7-3.4
						c-2.5-5.8-5.5-8.5-2.7-8.8c2.7-0.2,2-0.7-3.5-3c-5.5-2.2,6.2,2.2,17.2-4.7c11-7,12.2-6.7,13-7.5c0.7-0.7-6.3,1.2-6.3,1.2
						s10.1-4,12.6-5.5c2.5-1.5,8-3.5,18.2-2.5c10.2,1,13.2,3.5,25.9,0.5c12.7-3,16.7,3,16.7,3s-1-2.8-3.2-4.3
						C263.7,183.8,277.2,194.2,282.7,198.5z"/>
					<path class="st2" d="M147.6,197c0,0,5.5,4,15,6c9.5,2,13.6,3.2,13.9,4c0.3,0.8-2.6,0.8-2,2.3c0.6,1.4,3.5,6.6,4.3,8.9
						s-2.3,0.3-2.3,0.3l3.3,9.2c0,0-14.7-7.3-20.6-12.8s0.1-1.4,0.1-1.4s-13-9.2-14-15L147.6,197z"/>
				</g>
			</g>
			<g>
				<path class="st33" d="M211.9,188.6c0,0,9-2.8,24.4,0c15.4,2.8,25-5.5,31.9,2.6c6.8,8.2,6.8,11.3,17.8,15.1
					c11,3.8,3,13.3-4.9,13.3s-19.1,11.7-33.1,8.2C234,224.3,189.5,199.9,211.9,188.6z"/>
				<path class="st33" d="M392.8,188.6c0,0-9-2.8-24.4,0c-15.4,2.8-25-5.5-31.9,2.6c-6.8,8.2-6.8,11.3-17.8,15.1
					c-11,3.8-3,13.3,4.9,13.3s19.1,11.7,33.1,8.2C370.8,224.3,415.2,199.9,392.8,188.6z"/>
			</g>
			<g>
				<path class="st5" d="M382,185.2c0,0,2,17.2-6.7,25.4c-6.7,6.4-13.8,10.3-27.3,10.2c-13.5-0.1-19.1-7.4-17.8-19.1
					C330.2,201.7,354.2,189,382,185.2z"/>
				<path class="st34" d="M380,203.4c0,0-0.1-8.4-1.7-9.6s-18.3,8-22,11c-3.8,3-12.1,10.2-15.7,14.9c0,0-7.3-2.7-8.7-7.2
					s-3.2-9.8-1.6-10.8c1.7-1,15-6.9,28.6-10.9c13.6-3.9,23.2-5.7,23.2-5.7S384.7,196.2,380,203.4z"/>
			</g>
			<g>
				<path class="st5" d="M222.3,186.7c0,0-1.1,14.1,7.2,23.2c5.8,6.3,15.9,12.2,30.1,11.6c11.5-0.5,15.6-9.3,14.7-17.2
					C274.4,204.2,251.5,190.6,222.3,186.7z"/>
				<path class="st34" d="M226.9,205.7c0,0-0.8-8.1,1.5-9.8c2.3-1.7,23.9,6.9,31.7,13.3c7.8,6.4,9.5,8.7,9.5,8.7s5.4-7.3,5.2-11.6
					c-0.2-4.2-3.2-5.1-15.6-9.7c-11.5-4.3-35-9.6-36.6-10.1S224,201.7,226.9,205.7z"/>
			</g>
			<g>
				<path class="st35" d="M356.2,217.4c0,0,9.2-2.8,11.4-10.3c2.2-7.5,0.6-13.2-2.4-18c-3-4.8-31.7-7.2-30,12c0,0,1.5,12.2,8.8,15.4
					C350.4,219.4,356.2,217.4,356.2,217.4z"/>
				<path class="st36" d="M355.4,210.9c0,0,4.9-2.3,6.1-7.9c1-4.9,0-8.7-2.7-10.2c-2.6-1.6-19.5-4-18.3,7.6c0,0,1,5.8,3.2,8.2
					C346.3,211.4,351,212.5,355.4,210.9z"/>
				<path class="st37" d="M344.1,200.4c0,0,6.5-0.7,6.6,4.5c0,5.2-5.6,4.2-6.9,3.7S338.3,203,344.1,200.4z"/>
			</g>
			<g>
				<path class="st35" d="M250.5,215.2c0,0-9.8-1.9-12.7-8.6c-2.9-6.7-1.6-12.4,1.2-17c3.3-5.2,29.3-11.3,31.3,12.6
					c0,0,0.2,7.6-7.1,11.2C256.8,216.5,250.5,215.2,250.5,215.2z"/>
				<path class="st36" d="M249.1,208.8c0,0-5.2-1.4-6.2-6.6c-1.1-5.6-0.7-7,2.7-10.7c3.4-3.7,16.3-4.4,18.1,6.8c0,0,0.4,5.7-1.8,8.1
					C259.3,209.2,253.8,209.9,249.1,208.8z"/>
				<path class="st37" d="M249,196.1c0,0-6.5-0.4-6,5.9c0.4,5.2,5.8,4.5,7.1,4C253.3,204.7,255.2,198.6,249,196.1z"/>
			</g>
			<path class="st33" d="M220.8,180.2c0,0,20,4.3,33.4,2.2c13.4-2.1,25.1,1.6,26.9,6.6c1.8,5,6.7,21.5-8.3,13.4
				c-14.9-8-24.4-8.4-35.6-11.6C226,187.7,211.7,180.6,220.8,180.2z"/>
			<path class="st33" d="M389,180.2c0,0-20,4.3-33.4,2.2c-13.4-2.1-25.1,1.6-26.9,6.6c-1.8,5-6.7,21.5,8.3,13.4
				c14.9-8,24.4-8.4,35.6-11.6C383.8,187.7,398.2,180.6,389,180.2z"/>
			<path class="st38" d="M328.7,204c1-1.5,2-2.2,1.9-1.2c-0.1,1-2,6.9,1.3,10.5c0,0-1.1-4.6,3.8-9.9c3.4-3.6,7.5-3.7,12.7-5
				s19.1-6.7,24.6-8.6c5.5-1.9,20.5-6.9,24.9-7.5s8.3-2.1,8.3-2.1s-13-0.6-32.1,5.2c-19.1,5.7-18.4,5.4-18.4,5.4s6.7-2.7,9.4-5.5
				c0,0-10.7,2.8-14,4.8c-3.2,2-6.4,2-13.7,5.9c-3,1.6-13.8,6.3-17.7,15.6c0,0,1.1-1.3,4.9-3.8L328.7,204z"/>
			<g>
				<g>
					<path class="st0" d="M324.9,198.2c0,0-8.7,7.7-9.4,4.3c-0.7-3.3-0.2,4.6-2.2,0.8c-2-3.7-7-12.7-3.2-25.5c5.7-19.3,4-7.4,4-7.4
						l-0.1,4.3c0,0,1.9-6.1,9.5-10.2c0.5-0.3-3.3,9.2-3.2,8.6c0.6-1.9,2.9-7.3,10.6-11.6c8.5-4.7,50-8.8,66.6-1.2
						c16.8,7.6,19.2,12.2,24.4,15c5.2,2.7,14.5,7.9,14.5,7.9l-2.7,0.6c0,0,10.3,4.6,18.8,2.7s18.8-3.9,20.9-3.8
						c2.1,0.2-2.8,4.2-5.3,5.2c-2.5,1,2.2,1,2.2,1s-3.5,5.7-10.9,7.9c-7.4,2.2,1.2,1.6,2.2,1.4c1-0.2-3.7,8.9-13.9,14.4
						c-10.2,5.5,1.7,0,1.7,0s-14.1,12-22.1,13.6c0,0,1.5-2.6,3.2-7.2c1.7-4.5-4.2,2.2-1.7-3.3c2.5-5.5,5.5-8.2,2.7-8.4
						c-2.7-0.2-2-0.7,3.5-2.9s-6.2,2.1-17.1-4.5c-10.9-6.7-12.2-6.4-12.9-7.2c-0.7-0.7,6.3,1.2,6.3,1.2s-10-3.8-12.5-5.3
						c-2.5-1.4-7.9-3.3-18.1-2.4s-13.2,3.3-25.8,0.5c-12.7-2.9-16.6,2.9-16.6,2.9s1-2.7,3.2-4.1
						C343.8,184.1,330.5,194.1,324.9,198.2z"/>
					<path class="st2" d="M453.3,202.4c0,0-9,3.2-15.3,1.9c0,0,5.8-3.2,7.6-4.2c0,0-6.7,2.3-12,2.9l-3,0.8l5.2,0.3l-5.5,3l2.2,0.6
						l-4.3,9.5c0,0-0.6,0.7,1.2,0c1.8-0.7,0.7,5.4-1.3,7.3c-2,2,1,1.2,2.4,0.5s13.7-8.5,15.4-9.7c1.6-1.3,3.5-2.8,3.5-2.8l-5.8,2.4
						l10.3-7l-7.3,2.7c0,0,9.4-4.1,11.9-7.6c2.2-3.1,3.1-4.8,3.1-4.8s-5.2,6.8-10.9,7.6C450.8,205.8,453,203.7,453.3,202.4z"/>
				</g>
				<g>
					<path class="st0" d="M282.7,198.5c0,0,8.7,8,9.5,4.5s0.2,4.8,2.2,0.9s8.7-13.8,3.2-26.6c-5.5-12.7-4-7.7-4-7.7l-0.5,4.7
						c0,0-1.7-9.6-10.5-14.1c-8.7-4.5-55.3-14-71.3-4.7c-15.9,9.2-23.2,20-28.4,22.8c-5.2,2.8-14.2,4.2-14.2,4.2h4.5
						c0,0-10.2,5.9-18.7,3.9c-8.5-2-18.9-4.1-21-3.9c-2.2,0.2,2.8,4.4,5.3,5.4c2.5,1-2.2,1-2.2,1s3.5,6,11,8.2s-1.2,1.7-2.2,1.5
						s3.7,9.2,14,15c10.2,5.7-1.7,0-1.7,0s14.2,12.5,22.2,14.2c0,0-1.5-2.7-3.2-7.5c-1.7-4.7,4.2,2.3,1.7-3.4
						c-2.5-5.8-5.5-8.5-2.7-8.8c2.7-0.2,2-0.7-3.5-3c-5.5-2.2,6.2,2.2,17.2-4.7c11-7,12.2-6.7,13-7.5c0.7-0.7-6.3,1.2-6.3,1.2
						s10.1-4,12.6-5.5c2.5-1.5,8-3.5,18.2-2.5c10.2,1,13.2,3.5,25.9,0.5c12.7-3,16.7,3,16.7,3s-1-2.8-3.2-4.3
						C263.7,183.8,277.2,194.2,282.7,198.5z"/>
					<path class="st2" d="M147.6,197c0,0,5.5,4,15,6c9.5,2,13.6,3.2,13.9,4c0.3,0.8-2.6,0.8-2,2.3c0.6,1.4,3.5,6.6,4.3,8.9
						s-2.3,0.3-2.3,0.3l3.3,9.2c0,0-14.7-7.3-20.6-12.8s0.1-1.4,0.1-1.4s-13-9.2-14-15L147.6,197z"/>
				</g>
			</g>
			<path class="st38" d="M199.6,182.8c0,0,14.8-2.2,33.9,3.5c19.1,5.7,24.4,8.1,24.4,8.1s-11.8-5.4-14.6-8.2c0,0,7.9,2.2,11.1,4.2
				c3.2,2,9.2,5.4,12.3,6.6c3.1,1.2,14.3,7.2,18.3,14.9c0,0-1.7-2.5-5.5-5c0,0,2.7,8.9,2.1,11.2c0,0-1.9-3.1-2.2-4.3
				c-0.2-1.2-2.2-6.9-3.2-8.4c-1-1.5-2-2.2-1.9-1.2s2,6.9-1.3,10.5c0,0,1.1-4.6-3.8-9.9c-3.4-3.6-7.2-4.8-12.4-6.1
				c-5.2-1.3-19.4-5.6-24.9-7.5c-5.5-1.9-21.2-6.1-25.5-6.7S199.6,182.8,199.6,182.8z"/>
			<g>
				<path class="st33" d="M211.9,188.6c0,0,8.8-1.6,24.4,0c16,1.7,24.6-6.9,30.8,1.5c6.3,8.6,7.9,12.4,18.8,16.2
					c11,3.8,3,13.3-4.9,13.3s-19.1,11.7-33.1,8.2C234,224.3,189.5,199.9,211.9,188.6z"/>
				<path class="st33" d="M392.8,188.6c0,0-8.9-1.7-24.4,0c-15,1.6-20.6-7.1-30.5,2.9c-7.5,7.6-8.2,11.1-19.1,14.9
					c-11,3.8-3,13.3,4.9,13.3s19.1,11.7,33.1,8.2C370.8,224.3,415.2,199.9,392.8,188.6z"/>
			</g>
			<path class="st25" d="M389.6,185.2c0,0-12.1,0.2-20.5,1.8s-16-1.8-16-1.8s-2.5-2,11-0.9c13.5,1.1,23.4-10.3,41.4-6.3
				c18,4,11.5,11.6,0,9.4C394,185.1,389.6,185.2,389.6,185.2z"/>
			<path class="st25" d="M218.7,185.2c0,0,12.1,0.2,20.5,1.8c8.4,1.5,16-1.8,16-1.8s2.5-2-11-0.9c-13.5,1.1-23.4-10.3-41.4-6.3
				c-18,4-11.5,11.6,0,9.4C214.2,185.1,218.7,185.2,218.7,185.2z"/>
			<g>
				<g>
					<path class="st1" d="M382,189.9c0,0,2,13.1-6.7,19.3c-6.7,4.8-13.8,7.9-27.3,7.8c-13.5-0.1-19.1-5.6-17.8-14.5
						C330.2,202.5,354.2,192.8,382,189.9z"/>
					<path class="st34" d="M380,203.8c0,0-0.1-6.4-1.7-7.3c-1.6-0.9-18.3,6.1-22,8.3c-3.8,2.3-12.1,7.7-15.7,11.3
						c0,0-7.3-2.1-8.7-5.4s-3.2-7.4-1.6-8.2c1.7-0.8,15-5.3,28.6-8.3s23.2-4.3,23.2-4.3S384.7,198.3,380,203.8z"/>
				</g>
				<g>
					<path class="st1" d="M222.3,191.1c0,0-1.1,10.7,7.2,17.6c5.8,4.8,15.9,9.3,30.1,8.8c11.5-0.4,15.6-7.1,14.7-13.1
						C274.4,204.4,251.5,194,222.3,191.1z"/>
					<path class="st34" d="M226.9,205.5c0,0-0.8-6.1,1.5-7.5c2.3-1.3,23.9,5.3,31.7,10.1c7.8,4.9,9.5,6.6,9.5,6.6s5.4-5.6,5.2-8.8
						c-0.2-3.2-3.2-3.9-15.6-7.4c-11.5-3.2-35-7.3-36.6-7.7S224,202.5,226.9,205.5z"/>
				</g>
				<path class="st38" d="M199.6,188.1c0,0,14.8-1.7,33.9,2.7c19.1,4.4,24.4,6.2,24.4,6.2s-11.8-4.1-14.6-6.2c0,0,7.9,1.7,11.1,3.2
					c3.2,1.5,9.2,4.1,12.3,5c3.1,0.9,14.3,5.5,18.3,11.3c0,0-1.7-1.9-5.5-3.8c0,0,2.7,6.8,2.1,8.5c0,0-1.9-2.3-2.2-3.3
					c-0.2-0.9-2.2-5.2-3.2-6.4c-1-1.1-2-1.6-1.9-0.9s2,5.2-1.3,8c0,0,1.1-3.5-3.8-7.5c-3.4-2.8-7.2-3.6-12.4-4.6
					c-5.2-1-19.4-4.3-24.9-5.7c-5.5-1.4-21.2-4.6-25.5-5.1C201.9,189,199.6,188.1,199.6,188.1z"/>
				<path class="st38" d="M328.7,204.2c1-1.1,2-1.6,1.9-0.9s-2,5.2,1.3,8c0,0-1.1-3.5,3.8-7.5c3.4-2.8,7.5-2.8,12.7-3.8
					s19.1-5.1,24.6-6.5c5.5-1.4,20.5-5.3,24.9-5.7c4.4-0.5,8.3-1.6,8.3-1.6s-13-0.4-32.1,3.9c-19.1,4.4-18.4,4.1-18.4,4.1
					s6.7-2,9.4-4.2c0,0-10.7,2.1-14,3.7c-3.2,1.5-6.4,1.5-13.7,4.4c-3,1.2-13.8,4.8-17.7,11.8c0,0,1.1-1,4.9-2.9L328.7,204.2z"/>
			</g>
			<g>
				<path class="st39" d="M184.3,165c0,0-5.7-65,55-99.4s117.5-12.3,139.5,4.1c22,16.4,46.7,43.2,42.9,92.5c0,0-9.2-4.6-35.3-4.2
					c-27.7,0.4-38.7,0.7-53.4-1.1s-15.2-10.1-60.3-2.6c-45.1,7.5-49.3-2.2-83,10.8H184.3z"/>
				<g>
					<path class="st40" d="M186.8,136.6c0,0,36.4-18.4,94.3-16.1s100.6-0.5,140,17.7c0,0,6.4,18.5,0.5,23.9c0,0-15.3-6.8-54.3-6.3
						c-39.1,0.6-56.8-5-64.2-4.8s-78.8,4.2-92.5,7.7s-26.6,10.8-26.4,3.3C184.3,154.6,182.7,138.5,186.8,136.6z"/>
					<path class="st41" d="M424,156.2c0,0-17.7-10.6-56.8-12.3c-46.4-2-74.7-3.8-81.3-3.6c-35.5,1.3-99.1,11.2-101.9,18.8"/>
					<path class="st41" d="M183.9,148.3c0,0,37.2-20.7,96.6-18.2c59.4,2.5,103.1-0.6,143.5,19.9"/>
				</g>
			</g>
			<g>
				<g>
					<path class="st42" d="M304.1,110.8c0,0-4.3-0.7-7-6.6c-2.7-6-19.1-29.1-41.5-26.4c-22.4,2.7-49,13-58,43.5
						c-9,30.6,18.1,53.3,36.6,53s27.5-4.2,39.2-13.1c11.7-9,15.6-15.5,17.8-19c2.2-3.4,6.5-9.1,14.6-9.8s14,9.5,19.4,17.8
						s25.9,23.6,44.5,21.4c18.6-2.2,31.7-9.8,38.5-23.4c6.8-13.6,3.6-39.9-11.5-52.3c-15-12.4-54.1-35.4-82,4
						C314.8,99.8,308.9,112.6,304.1,110.8z"/>
					<path class="st43" d="M288.9,102.8c7.8,18.3-8.6,46.3-32.6,56.9c-21.8,9.7-42.1,2.1-49.7-16.3c-9.1-22.1,3.3-45.5,27.4-55.8
						C258.2,77.2,281.1,84.5,288.9,102.8z"/>
					<path class="st43" d="M321.6,103.3c-7.8,18.3,8.3,46.1,31.9,56.6c21.5,9.5,41.7,1.9,49.2-16.5c9.1-22.1-5.5-46.3-29.2-56.5
						C349.7,76.7,329.4,85,321.6,103.3z"/>
					<path class="st44" d="M210.5,164.3c0,0,9.9,12.3,26.8,14.5s33.3-5.5,42.9-16.9c9.7-11.5,8.8-14,14.2-19.7
						c5.5-5.8,7.5-5.8,11.3-6.1s9.1,4,12.3,9.5c3.2,5.5,8.1,17.4,22.5,25.4s26.9,11,40.9,4.8s24.6-16.1,26.9-27.6
						c0,0-7.9,19.9-37.3,23.3c-29.4,3.3-46.8-23.4-50.2-27.9s-6.9-11.5-15.9-11.1c-9.1,0.4-14.8,12.1-18.1,15.9
						s-19.4,21.9-38.5,24.6C229.2,175.7,221.7,173.7,210.5,164.3z"/>
					<path class="st45" d="M278.1,107.2c7.9,18.7-7.2,37.5-25.8,45.7c-16.9,7.5-31.4,1.9-37.3-12.4c-7-17.2,2.6-33.6,21.3-41.6
						S272.1,92.9,278.1,107.2z"/>
					<path class="st45" d="M333.5,108.4c-7.9,18.7,5.7,36.6,24.1,44.8c16.7,7.4,31.1,1.7,36.9-12.6c7-17.2-2.4-33.5-20.9-41.4
						S339.5,94.1,333.5,108.4z"/>
					<path class="st46" d="M259.8,100.7c0,0-13,16-17.5,22.7s-9.9,16.8-18,14.4c-8.1-2.4-0.6-22.7,10.7-30.7
						C246.3,99.2,253.7,97.6,259.8,100.7z"/>
					<path class="st46" d="M385.9,109.5c0,0-13.1-9.7-22.8-9l1.9-1.1c0,0-6.7-2.8-15.3-1.3c-8.6,1.5-12.8,20.3-8.4,20.7
						c4.4,0.5,9.9-1.6,16.8-4.3S383.5,109.4,385.9,109.5z"/>
					<path class="st2" d="M305.8,120.5c0,0,5.8-0.1,10.6,8c4.7,8,11.3,19.2,19,25.4c7.7,6.2,25.4,20.4,56,11.1
						c0,0,13.6-6.4,16.3-14.2c0,0-9.6,25.8-38.6,28.4c-29,2.6-45.7-24.4-46.8-26.3c-1.1-2-7.8-16.3-16.4-16.8
						c-8.6-0.6-15.4,11.4-16.4,13.1c-1.1,1.8-11.8,19.8-23.4,24.2c-12.4,4.7-32.2,14.9-55.5-9c0,0,15.1,9.6,36.8,5
						c20.7-4.4,33.3-16.4,38.7-25.7C291.4,134.4,297.5,123.2,305.8,120.5z"/>
				</g>
			</g>
		</g>
	</g>
</g>
</svg>
